<svg xmlns="http://www.w3.org/2000/svg" viewBox="0 0 293.18 67.32"><defs><style>.cls-1{opacity:0.34;}.cls-2{font-size:50.32px;fill:#fff;font-family:HelveticaNeue-Bold, Helvetica Neue;font-weight:700;}</style></defs><title>Asset 15</title><g id="Layer_2" data-name="Layer 2"><g id="Layer_3" data-name="Layer 3"><g class="cls-1"><polygon points="21.89 31.48 11.34 31.48 11.34 27.67 25.32 27.67 25.32 21.54 20.32 16.54 11.34 16.54 11.34 13.84 26.57 13.84 26.57 7.2 21.57 2.19 0 2.19 0 38.12 5 43.12 26.89 43.12 26.89 36.48 21.89 31.48"/><polygon points="55.58 43.12 45.52 24.35 54.77 7.2 49.77 2.19 42.82 2.19 38.25 11.14 36.31 7.2 31.31 2.19 23.95 2.19 33.25 19.3 23.19 38.12 28.19 43.12 35.3 43.12 40.48 33.1 43.02 38.12 48.02 43.12 55.58 43.12"/><path d="M80.56,14.44a10.55,10.55,0,0,0-1.74-3.67A7.29,7.29,0,0,0,78,9.83C77.36,9.18,73.16,5,72.78,4.6a9.12,9.12,0,0,0-2-1.42,9.83,9.83,0,0,0-4.6-1h-13V38.12l5,5h6.34V30.24h6.67a10,10,0,0,0,4.6-1,8.82,8.82,0,0,0,3.09-2.59A10.61,10.61,0,0,0,80.56,23a17.11,17.11,0,0,0,0-8.53ZM70,13.72a7,7,0,0,1-.46,2.77,4,4,0,0,1-1.23,1.63,4.22,4.22,0,0,1-1.78.78,11.18,11.18,0,0,1-2,.2V13.33h4.93c.19,0,.37,0,.56,0C70,13.48,70,13.59,70,13.72Z"/><polygon points="101.96 31.48 91.41 31.48 91.41 27.67 105.38 27.67 105.38 21.54 100.38 16.54 91.41 16.54 91.41 13.84 106.63 13.84 106.63 7.2 101.63 2.19 80.06 2.19 80.06 38.12 85.06 43.12 106.96 43.12 106.96 36.48 101.96 31.48"/><path d="M135.42,41.29a20,20,0,0,1-.33-2.29c-.06-.81-.11-1.6-.14-2.37s0-1.44-.08-2a25.13,25.13,0,0,0-.3-2.72,10.6,10.6,0,0,0-.71-2.49,6.78,6.78,0,0,0-1.25-2,4.6,4.6,0,0,0-1.94-1.24v-.1a7.19,7.19,0,0,0,3.49-3.52,12.85,12.85,0,0,0,1.07-5.48,12.28,12.28,0,0,0-.58-3.85,9.76,9.76,0,0,0-1.7-3.15,7.17,7.17,0,0,0-.52-.58c-.63-.63-5-5-5.27-5.26a7.67,7.67,0,0,0-5.37-2.07H106.24V38.12l5,5h6.34v-14h6.08c0,.15,0,.28.07.44.16,1.44.28,2.95.37,4.53a17,17,0,0,0,.64,4.07l5,5h6.34A5.87,5.87,0,0,1,135.42,41.29Zm-17.84-28h6.31a5.73,5.73,0,0,1-1.09,3.91,4.21,4.21,0,0,1-3.27,1.21h-2Z"/><polygon points="141.75 2.19 135.41 2.19 135.41 38.12 140.41 43.12 146.75 43.12 146.75 7.2 141.75 2.19"/><path d="M178.39,2.2h-8.93l-4.66,18-3.55-13-5-5h-8.93V38.12l5,5h5.94V30.45l2.15,7.67,5,5h4.89l2.15-7.74v2.74l5,5h5.94V7.2Z"/><polygon points="205.85 31.48 195.3 31.48 195.3 27.67 209.28 27.67 209.28 21.54 204.28 16.54 195.3 16.54 195.3 13.84 210.53 13.84 210.53 7.2 205.53 2.19 183.96 2.19 183.96 38.12 188.96 43.12 210.85 43.12 210.85 36.48 205.85 31.48"/><polygon points="234.5 2.19 228.56 2.19 228.56 21.45 221.44 7.2 216.44 2.19 210.14 2.19 210.14 38.12 215.14 43.12 221.07 43.12 221.07 23.93 228.15 38.12 233.15 43.12 239.5 43.12 239.5 7.2 234.5 2.19"/><polygon points="261.44 2.19 237.81 2.19 237.81 8.84 242.81 13.84 246.45 13.84 246.45 38.12 251.45 43.12 257.79 43.12 257.79 13.84 266.44 13.84 266.44 7.2 261.44 2.19"/><path d="M291.18,27.5a10.21,10.21,0,0,0-2.44-3.1,10.44,10.44,0,0,0-2.38-1.48c-.06-.14-.11-.29-.18-.42a10.21,10.21,0,0,0-2.44-3.1,10,10,0,0,0-2.85-1.68,22.91,22.91,0,0,0-2.24-.73l-3.54-1.13a3.64,3.64,0,0,1,.34-1.22,4.1,4.1,0,0,1,1-1.26,3.73,3.73,0,0,1,1.39-.7,6.2,6.2,0,0,1,1.54-.2c.23,0,.44,0,.66,0,0,.13,0,.25,0,.39l5,5h6.14a13.2,13.2,0,0,0-.95-5.31A10,10,0,0,0,287.73,9c-.77-.67-4-4.11-5-5A10,10,0,0,0,279,2a14.89,14.89,0,0,0-4.34-.63,12.24,12.24,0,0,0-3.88.65,10.09,10.09,0,0,0-6,5.41,11.34,11.34,0,0,0-1,4.81,10.58,10.58,0,0,0,.75,4.2,8.63,8.63,0,0,0,2,2.89c.81.78,4.19,4.23,5,5a10.28,10.28,0,0,0,2.75,1.89,22.34,22.34,0,0,0,3.15,1.23c1.05.37,2.08.71,3.11,1l.44.15a4,4,0,0,1-.55,2A4.16,4.16,0,0,1,279.09,32a5.34,5.34,0,0,1-1.82.68,9.9,9.9,0,0,1-1.81.18,8.82,8.82,0,0,1-1.27-.1,9.34,9.34,0,0,1-.12-1.54l-5-5h-6.14a14.52,14.52,0,0,0,1,5.73,11.06,11.06,0,0,0,2.73,4c.79.71,4,4.12,5,5a10.75,10.75,0,0,0,4,2.29,15,15,0,0,0,4.62.73,14.47,14.47,0,0,0,5.19-.86,10.28,10.28,0,0,0,3.76-2.39A9.91,9.91,0,0,0,291.44,37a13.11,13.11,0,0,0,.77-4.58A10.45,10.45,0,0,0,291.18,27.5Z"/></g><text class="cls-2" transform="translate(2.21 43.12) scale(0.8 1)">EXPERIMENTS</text></g></g></svg>