<svg xmlns="http://www.w3.org/2000/svg" viewBox="0 0 198.01 67.324"><defs><style>.cls-1{opacity:0.25;}.cls-2{font-size:50.317px;fill:#fff;font-family:HelveticaNeue-Bold, Helvetica Neue;font-weight:700;}.cls-3{letter-spacing:-0.092em;}</style></defs><title>Asset 18</title><g id="Layer_2" data-name="Layer 2"><g id="Layer_3" data-name="Layer 3"><g id="Contact_Shadow" data-name="Contact Shadow" class="cls-1"><path d="M26.863,24.284h-6.14a11.616,11.616,0,0,1-2,5.837,5.331,5.331,0,0,1-4.545,2.214,7.364,7.364,0,0,1-1.709-.2,14.422,14.422,0,0,1-.7-2.421,22.475,22.475,0,0,1-.425-4.4,24.2,24.2,0,0,1,.425-4.58,13.83,13.83,0,0,1,1.352-3.949,7.723,7.723,0,0,1,2.424-2.768,6.248,6.248,0,0,1,3.636-1.032,5.444,5.444,0,0,1,1.063.107,7.965,7.965,0,0,1,.238,1.183l5,5h6.141a17.138,17.138,0,0,0-1.374-5.535,13.1,13.1,0,0,0-2.767-4.05c-.839-.818-4.139-4.16-5-5a11.639,11.639,0,0,0-3.8-2.491,11.927,11.927,0,0,0-4.5-.855A12.135,12.135,0,0,0,8.221,2.8,13.294,13.294,0,0,0,3.757,6.824,19.365,19.365,0,0,0,.97,12.837,27.487,27.487,0,0,0,0,20.31a26.541,26.541,0,0,0,.97,7.32,18.777,18.777,0,0,0,2.787,5.913A13.544,13.544,0,0,0,5.169,35.2c.838.838,5.073,5.149,5.952,5.875a13.149,13.149,0,0,0,2.1,1.414,12.3,12.3,0,0,0,5.958,1.434,11.7,11.7,0,0,0,4.887-1.007A11.179,11.179,0,0,0,27.944,40a14.89,14.89,0,0,0,2.666-4.629,21.963,21.963,0,0,0,1.253-6.089Z"/><path d="M62.321,17.837a19.365,19.365,0,0,0-2.787-6.013,14.029,14.029,0,0,0-1.55-1.838c-.835-.832-4.529-4.55-5.142-5.143A13.021,13.021,0,0,0,50.091,2.8a12.937,12.937,0,0,0-11.937,0A13.3,13.3,0,0,0,33.69,6.824,19.41,19.41,0,0,0,30.9,12.837a27.527,27.527,0,0,0-.969,7.473,26.579,26.579,0,0,0,.969,7.32,18.82,18.82,0,0,0,2.787,5.913,13.481,13.481,0,0,0,1.891,2.116c.711.643,4.39,4.471,5.134,5.129a13.023,13.023,0,0,0,2.439,1.705,13.138,13.138,0,0,0,11.937,0,13.3,13.3,0,0,0,4.443-3.95,18.777,18.777,0,0,0,2.787-5.913,26.541,26.541,0,0,0,.97-7.32A27.487,27.487,0,0,0,62.321,17.837Zm-10.8-2.107a24.284,24.284,0,0,1,.424,4.58,22.551,22.551,0,0,1-.424,4.4,13.556,13.556,0,0,1-1.353,3.85A7.781,7.781,0,0,1,47.748,31.3a6.245,6.245,0,0,1-3.636,1.031,7.349,7.349,0,0,1-1.708-.2,14.422,14.422,0,0,1-.7-2.421,22.551,22.551,0,0,1-.425-4.4,24.284,24.284,0,0,1,.425-4.58,13.831,13.831,0,0,1,1.353-3.949,7.713,7.713,0,0,1,2.424-2.768,6.247,6.247,0,0,1,3.635-1.032,7.336,7.336,0,0,1,1.686.2A14.928,14.928,0,0,1,51.525,15.73Z"/><polygon points="86.972 2.195 81.034 2.195 81.034 21.449 73.915 7.195 68.915 2.195 62.613 2.195 62.613 38.122 67.613 43.122 73.552 43.122 73.552 23.931 80.63 38.122 85.63 43.122 91.972 43.122 91.972 7.195 86.972 2.195"/><polygon points="113.915 2.195 90.284 2.195 90.284 8.837 95.284 13.837 98.929 13.837 98.929 38.122 103.929 43.122 110.271 43.122 110.271 13.837 118.915 13.837 118.915 7.195 113.915 2.195"/><path d="M143.679,43.122,132.893,7.2l-5-5h-6.5L110.482,38.122l5,5h6.383l2.262-8h7.149l.818,3,5,5ZM128.257,24.234h-1.049l.533-1.87Z"/><path d="M166.794,24.284h-6.141a11.6,11.6,0,0,1-2,5.837,5.33,5.33,0,0,1-4.545,2.214,7.349,7.349,0,0,1-1.708-.2,14.422,14.422,0,0,1-.7-2.421,22.551,22.551,0,0,1-.425-4.4,24.284,24.284,0,0,1,.425-4.58,13.831,13.831,0,0,1,1.353-3.949,7.723,7.723,0,0,1,2.424-2.768,6.247,6.247,0,0,1,3.635-1.032,5.436,5.436,0,0,1,1.063.107,7.966,7.966,0,0,1,.239,1.183l5,5h6.141a17.19,17.19,0,0,0-1.374-5.535,13.135,13.135,0,0,0-2.767-4.05c-.839-.818-4.14-4.16-5-5a11.643,11.643,0,0,0-3.8-2.491,11.927,11.927,0,0,0-4.5-.855A12.138,12.138,0,0,0,148.151,2.8a13.291,13.291,0,0,0-4.463,4.025,19.389,19.389,0,0,0-2.788,6.013,27.527,27.527,0,0,0-.969,7.473,26.579,26.579,0,0,0,.969,7.32,18.8,18.8,0,0,0,2.788,5.913,14.918,14.918,0,0,0,1.444,1.619c1.477,1.486,4.923,5.064,5.725,5.753a13.148,13.148,0,0,0,2.294,1.578,12.3,12.3,0,0,0,5.958,1.434A11.705,11.705,0,0,0,164,42.92,11.179,11.179,0,0,0,167.875,40a14.93,14.93,0,0,0,2.666-4.629,21.963,21.963,0,0,0,1.253-6.089Z"/><polygon points="192.484 2.195 168.854 2.195 168.854 8.837 173.854 13.837 177.498 13.837 177.498 38.122 182.498 43.122 188.84 43.122 188.84 13.837 197.484 13.837 197.484 7.195 192.484 2.195"/></g><text class="cls-2" transform="translate(3.465 43.122) scale(0.803 1)">CON<tspan class="cls-3" x="113.716" y="0">T</tspan><tspan x="139.831" y="0">ACT</tspan></text></g></g></svg>