<?xml version="1.0" encoding="utf-8"?>
<!-- Generator: Adobe Illustrator 24.0.2, SVG Export Plug-In . SVG Version: 6.00 Build 0)  -->
<svg version="1.1" id="Layer_1" xmlns="http://www.w3.org/2000/svg" xmlns:xlink="http://www.w3.org/1999/xlink" x="0px" y="0px"
	 viewBox="0 0 147.4 55" style="enable-background:new 0 0 147.4 55;" xml:space="preserve">
<style type="text/css">
	.st0{opacity:0.25;}
	.st1{fill:#FFFFFF;}
	.st2{font-family:'HelveticaNeue-Bold';}
	.st3{font-size:50.317px;}
</style>
<title>about_h</title>
<g id="Layer_2_1_">
	<g id="Layer_3">
		<g class="st0">
			<path d="M33.2,43.1L22.4,7.2l-5-5h-6.5L0,38.1l5,5h6.4l2.3-8h7.1l0.8,3l5,5H33.2z M17.8,24.2h-1l0.5-1.9L17.8,24.2z"/>
			<path d="M58.5,26.9c-0.9-1.6-2.3-2.8-4-3.3c1.2-0.7,2.2-1.7,2.9-3c0.7-1.4,1-3,1-4.5c0-1.4-0.2-2.9-0.7-4.2c-0.4-1.1-1-2-1.9-2.7
				c-0.8-0.7-4.2-4.3-5-5S49,3,47.9,2.7c-1.2-0.3-2.5-0.5-3.8-0.5H30.7v35.9l5,5h14c1.3,0,2.6-0.2,3.8-0.6c1.2-0.4,2.3-1,3.3-1.9
				s1.8-2,2.3-3.2c0.6-1.5,0.9-3.1,0.8-4.7C59.9,30.7,59.5,28.7,58.5,26.9z M43.5,16.7H42v-3.4h5.2c0,0.9-0.4,1.8-1,2.4
				C45.5,16.4,44.5,16.8,43.5,16.7z M42,27.1h6.5v0.1c0,0.8-0.1,1.6-0.4,2.3c-0.2,0.6-0.6,1-1,1.4s-0.9,0.6-1.5,0.8
				C45,31.9,44.4,32,43.8,32H42V27.1z"/>
			<path d="M90.3,17.8c-0.6-2.1-1.5-4.2-2.8-6c-0.5-0.7-1.1-1.4-1.8-2c-0.8-0.7-4.5-4.6-5.3-5.2c-0.7-0.7-1.6-1.3-2.4-1.7
				C74.3,1,69.8,1,66.1,2.9c-1.8,1-3.3,2.4-4.5,4c-1.3,1.8-2.2,3.9-2.8,6c-0.7,2.4-1,4.9-1,7.5c0,2.5,0.3,4.9,1,7.3
				c0.6,2.1,1.5,4.1,2.8,5.9c0.4,0.5,0.8,1,1.2,1.5c0.9,0.9,5,5,5.7,5.7c0.8,0.7,1.7,1.3,2.6,1.8c3.7,1.9,8.2,1.9,11.9,0
				c1.8-1,3.3-2.3,4.4-4c1.3-1.8,2.2-3.8,2.8-5.9c0.7-2.4,1-4.8,1-7.3C91.3,22.8,90.9,20.3,90.3,17.8z M79.5,15.7
				c0.3,1.5,0.4,3,0.4,4.6c0,1.5-0.1,3-0.4,4.4c-0.3,1.3-0.7,2.6-1.4,3.9c-0.6,1.1-1.4,2-2.4,2.7c-1.1,0.7-2.3,1.1-3.6,1
				c-0.6,0-1.1-0.1-1.7-0.2c-0.3-0.8-0.5-1.6-0.7-2.4c-0.3-1.4-0.4-2.9-0.4-4.4s0.1-3.1,0.4-4.6c0.2-1.4,0.7-2.7,1.4-3.9
				c0.6-1.1,1.4-2.1,2.4-2.8c1.1-0.7,2.3-1.1,3.6-1c0.6,0,1.1,0.1,1.7,0.2C79.1,14,79.3,14.9,79.5,15.7L79.5,15.7z"/>
			<path d="M115,2.2h-6.3v22.3c0,2.7-0.4,4.7-1.3,5.9c-0.9,1.3-2.4,1.9-4.7,1.9c-0.3,0-0.5,0-0.7,0c-0.1-0.9-0.2-1.8-0.2-2.8V7.2
				l-5-5h-6.3v22.3c0,4.9,1.1,8.5,3.2,10.9c0.9,1,4.3,4.3,5,5c2.1,2.3,5.2,3.5,9.1,3.5c3.8,0,6.9-1.2,9-3.5c2.2-2.4,3.3-6,3.3-10.8
				V7.2L115,2.2z"/>
			<polygon points="141.9,2.2 118.2,2.2 118.2,8.8 123.2,13.8 126.9,13.8 126.9,38.1 131.9,43.1 138.2,43.1 138.2,13.8 146.9,13.8 
				146.9,7.2 			"/>
		</g>
		<text transform="matrix(0.803 0 0 1 5.2422 43.1216)" class="st1 st2 st3">ABOUT</text>
	</g>
</g>
</svg>
