<?xml version="1.0" encoding="utf-8"?>
<!-- Generator: Adobe Illustrator 24.0.2, SVG Export Plug-In . SVG Version: 6.00 Build 0)  -->
<svg version="1.1" id="Layer_1" xmlns="http://www.w3.org/2000/svg" xmlns:xlink="http://www.w3.org/1999/xlink" x="0px" y="0px"
	 viewBox="0 0 108.9 80.4" style="enable-background:new 0 0 108.9 80.4;" xml:space="preserve">
<style type="text/css">
	.st0{stroke:#000000;stroke-width:2;stroke-miterlimit:10;}
	.st1{opacity:0.86;enable-background:new    ;}
	.st2{fill:#FFFFFF;}
</style>
<title>cloud2</title>
<g id="Layer_2_1_">
	<g id="Layer_5">
		<path class="st0" d="M89,1.6c-4.2-1.2-9.4-0.7-15.1,1.9c-2.4,1.1-4.7,2.5-6.8,4.1c-1.7-0.9-8.5-4-10.1-4.7
			c-6-2.7-13.9-2.3-22.6,1.8C16,13.4,1,35.4,1,53.9c0,8.9,3.4,15.3,9.1,18.7c4.3,2.3,8.6,4.3,13.2,6c5.3,1.6,11.8,1.1,18.8-1.9v0
			l43-20.1v-0.1c12.8-7,22.8-22.4,22.8-35.4c0-5.9-2.1-10.4-5.5-13C100.3,6.5,91.3,2.3,89,1.6z"/>
		<g class="st1">
			<path class="st2" d="M29.4,78.4c-11.3,0-18.4-7.8-18.4-20.3C11.1,40,25.8,18.3,44,9.9c4.8-2.2,9.4-3.4,13.7-3.4
				c6.6,0,12,2.8,15.2,7.9l0.6,1l0.9-0.8c2.7-2.4,5.7-4.4,9-5.9c3.5-1.6,6.9-2.5,10.1-2.5c8.3,0,13.4,5.7,13.4,14.9
				c0,12.5-9.8,27.7-22.3,34.6l-0.5,0.3V56L42.2,75.5l-0.5,0.2C37.4,77.5,33.3,78.4,29.4,78.4z"/>
			<path d="M93.5,7.2c7.6,0,12.4,5.3,12.4,13.9c0,12.2-9.6,27-21.8,33.7l-1,0.6v0l-41,19.1l-0.8,0.3c-4.2,1.8-8.2,2.6-11.9,2.6
				c-10.7,0-17.4-7.4-17.4-19.3c0-17.8,14.5-39,32.3-47.3c4.7-2.2,9.1-3.3,13.3-3.3c6.3,0,11.4,2.6,14.4,7.4l1.2,2l1.8-1.6
				c2.6-2.3,5.6-4.2,8.7-5.7C87.2,8,90.5,7.2,93.5,7.2 M93.5,5.2c-3.2,0-6.8,0.8-10.5,2.6c-3.3,1.6-6.4,3.6-9.2,6.1
				c-3.4-5.4-9-8.4-16.1-8.4c-4.3,0-9.1,1.1-14.1,3.5c-18.5,8.6-33.5,30.6-33.5,49.1c0,13.4,7.9,21.3,19.4,21.3
				c3.9,0,8.1-0.9,12.6-2.8v0l43-20.1v-0.1c12.8-7,22.8-22.4,22.8-35.4C107.9,11.1,102,5.2,93.5,5.2L93.5,5.2z"/>
		</g>
	</g>
</g>
</svg>
