<?xml version="1.0" encoding="utf-8"?>
<!-- Generator: Adobe Illustrator 24.0.2, SVG Export Plug-In . SVG Version: 6.00 Build 0)  -->
<svg version="1.1" id="Layer_1" xmlns="http://www.w3.org/2000/svg" xmlns:xlink="http://www.w3.org/1999/xlink" x="0px" y="0px"
	 viewBox="0 0 166.4 136.1" style="enable-background:new 0 0 166.4 136.1;" xml:space="preserve">
<style type="text/css">
	.st0{stroke:#000000;stroke-width:2;stroke-miterlimit:10;}
	.st1{fill:#FFFFFF;}
</style>
<title>cloud1</title>
<g id="Layer_2_1_">
	<g id="Layer_5">
		<path id="Cloud_1_Shadow" class="st0" d="M164.8,43.2c-0.3-5.4-2.7-8.6-6-10.3c-1.8-0.9-8-3.7-9.3-4.4c-3.2-1.4-6.8-2-10.3-1.7
			c1.5-10-1.5-16.4-6.9-19.5c-1.8-1-9.1-4.4-10.9-5.1c-14.5-5.7-42.1,8.6-52.6,40.3c-17.9-3.1-41.2,15.9-37,39.3
			c-21-3.1-38.6,36.8-27,46.8c1.8,1.5,9.8,5.1,11.8,5.8c3.6,1.3,9,0.7,16.3-2.7c10-4.7,74-33.7,111.1-51
			C158.8,73.8,167.3,57.5,164.8,43.2z"/>
		<g id="Cloud_1">
			<path class="st1" d="M20.5,134.1c-8.2,0-9.4-7.1-9.4-11.4c0-7.1,3.1-16.1,8.2-23.3c5.6-8,12.5-12.5,19.1-12.5
				c0.7,0,1.5,0.1,2.2,0.2l1.4,0.2l-0.2-1.4c-1.6-9.1,1-18.2,7.3-25.8c6.5-7.8,16-12.6,24.8-12.6c1.3,0,2.5,0.1,3.7,0.3l0.8,0.1
				l0.3-0.8c8.8-26.5,29.6-40.9,44.6-40.9c5.3,0,9.5,1.8,12.1,5.3c3.5,4.6,3.9,11.9,1.3,21l-0.5,1.8l1.8-0.6c0.1,0,5.6-1.7,11.5-1.7
				c9,0,13.8,3.8,14.2,11.2l0,0.1l0,0.1c2.5,14.2-6.2,29.9-20.4,36.5c-24.4,11.4-61,28.1-85.2,39.1c-12.6,5.7-22.5,10.3-25.9,11.9
				C27.7,133,23.7,134.1,20.5,134.1z"/>
			<path d="M123.4,7.2c3.5,0,8.3,0.8,11.3,4.9c3.3,4.4,3.7,11.3,1.2,20.1l-1,3.6l3.5-1.1c0.1,0,5.5-1.7,11.2-1.7
				c3.8,0,6.8,0.7,8.9,2.1c2.6,1.7,4,4.4,4.2,8.2l0,0.1l0,0.1c2.4,13.8-6.1,29-19.8,35.4C118.6,90.3,82,107,57.9,118
				c-12.6,5.7-22.5,10.3-25.9,11.9c-4.5,2.1-8.3,3.1-11.4,3.1c-3.9,0-8.4-1.8-8.4-10.4c0-6.9,3.1-15.6,8-22.7
				c5.4-7.7,12-12.1,18.3-12.1c0.7,0,1.4,0.1,2.1,0.2l2.8,0.4l-0.5-2.7c-1.6-8.8,1-17.7,7.1-25c6.3-7.6,15.5-12.3,24-12.3
				c1.2,0,2.4,0.1,3.6,0.3l1.7,0.3l0.5-1.6c5.1-15.4,13.6-24.8,19.9-30C107.3,10.9,115.9,7.2,123.4,7.2 M123.4,5.2
				c-15.1,0-36.6,14.4-45.6,41.5c-1.3-0.2-2.6-0.3-3.9-0.3c-17.1,0-36.9,17.9-33.1,39.6c-0.8-0.1-1.6-0.2-2.4-0.2
				c-22.9,0-40.4,49.2-17.9,49.2c3.2,0,7.3-1,12.3-3.3c10-4.7,74-33.7,111.1-51c14.9-7,23.5-23.3,20.9-37.5
				c-0.5-9.9-8.2-12.2-15.2-12.2c-6.1,0-11.8,1.8-11.8,1.8C143.1,14.1,135.2,5.2,123.4,5.2L123.4,5.2z"/>
		</g>
	</g>
</g>
</svg>
