<?xml version="1.0" encoding="utf-8"?>
<!-- Generator: Adobe Illustrator 24.0.2, SVG Export Plug-In . SVG Version: 6.00 Build 0)  -->
<svg version="1.1" id="Layer_1" xmlns="http://www.w3.org/2000/svg" xmlns:xlink="http://www.w3.org/1999/xlink" x="0px" y="0px"
	 viewBox="0 0 198.2 55" style="enable-background:new 0 0 198.2 55;" xml:space="preserve">
<style type="text/css">
	.st0{opacity:0.25;}
	.st1{fill-opacity:0;}
	.st2{fill:#FFFFFF;}
	.st3{font-family:'HelveticaNeue-Bold';}
	.st4{font-size:50.317px;}
</style>
<title>contact</title>
<g id="Layer_2_1_">
	<g id="Layer_3">
		<g id="Contact_Shadow" class="st0">
			<path class="st1" d="M27,24.3h-6.1c-0.1,2.1-0.8,4.1-2,5.8c-1,1.5-2.8,2.3-4.5,2.2c-0.6,0-1.1-0.1-1.7-0.2
				c-0.3-0.8-0.5-1.6-0.7-2.4c-0.3-1.4-0.4-2.9-0.4-4.4s0.1-3.1,0.4-4.6c0.2-1.4,0.7-2.7,1.4-3.9c0.6-1.1,1.4-2.1,2.4-2.8
				c1.1-0.7,2.3-1.1,3.6-1c0.4,0,0.7,0,1.1,0.1c0.1,0.4,0.2,0.8,0.2,1.2l5,5h6.1c-0.1-1.9-0.6-3.8-1.4-5.5c-0.7-1.5-1.6-2.9-2.8-4.1
				c-0.8-0.8-4.1-4.2-5-5c-1.1-1.1-2.4-1.9-3.8-2.5s-3-0.9-4.5-0.9c-2.1,0-4.1,0.5-6,1.5c-1.8,1-3.3,2.4-4.5,4
				c-1.3,1.8-2.2,3.9-2.8,6c-0.7,2.4-1,4.9-1,7.5c0,2.5,0.3,4.9,1,7.3c0.6,2.1,1.5,4.1,2.8,5.9c0.4,0.6,0.9,1.1,1.4,1.7
				c0.8,0.8,5.1,5.1,6,5.9c0.7,0.5,1.4,1,2.1,1.4c1.8,1,3.9,1.5,6,1.4c1.7,0,3.3-0.3,4.9-1c1.5-0.7,2.8-1.7,3.9-2.9
				c1.2-1.4,2.1-2.9,2.7-4.6c0.7-2,1.1-4,1.3-6.1L27,24.3z"/>
		</g>
		<text transform="matrix(0.803 0 0 1 3.5649 43.1216)" class="st2 st3 st4">CON</text>
		<text transform="matrix(0.803 0 0 1 94.8794 43.1216)" class="st2 st3 st4">T</text>
		<text transform="matrix(0.803 0 0 1 115.8496 43.1216)" class="st2 st3 st4">ACT</text>
	</g>
</g>
</svg>
