<svg xmlns="http://www.w3.org/2000/svg" viewBox="0 0 293.18 67.324"><defs><style>.cls-1{opacity:0.34;}.cls-2{font-size:50.317px;fill:#fff;font-family:HelveticaNeue-Bold, Helvetica Neue;font-weight:700;}</style></defs><title>Asset 16</title><g id="Layer_2" data-name="Layer 2"><g id="Layer_3" data-name="Layer 3"><g class="cls-1"><polygon points="21.894 31.479 11.342 31.479 11.342 27.674 25.32 27.674 25.32 21.536 20.32 16.536 11.342 16.536 11.342 13.837 26.572 13.837 26.572 7.195 21.572 2.195 0 2.195 0 38.122 5 43.122 26.894 43.122 26.894 36.479 21.894 31.479"/><polygon points="55.576 43.122 45.517 24.354 54.767 7.195 49.767 2.195 42.82 2.195 38.252 11.141 36.307 7.195 31.307 2.195 23.955 2.195 33.246 19.303 23.187 38.122 28.187 43.122 35.296 43.122 40.476 33.101 43.021 38.122 48.021 43.122 55.576 43.122"/><path d="M80.56,14.441a10.729,10.729,0,0,0-1.737-3.673,8.475,8.475,0,0,0-.811-.942c-.648-.649-4.85-4.869-5.234-5.225a9.217,9.217,0,0,0-2.046-1.425,9.934,9.934,0,0,0-4.605-.981H53.12V38.122l5,5h6.342V30.24h6.665a9.921,9.921,0,0,0,4.605-.981,8.8,8.8,0,0,0,3.091-2.591,10.7,10.7,0,0,0,1.737-3.7,16.957,16.957,0,0,0,0-8.529Zm-10.6-.723a6.963,6.963,0,0,1-.464,2.767,4.022,4.022,0,0,1-1.232,1.636,4.3,4.3,0,0,1-1.777.779,10.65,10.65,0,0,1-2.029.2V13.334H69.39c.191,0,.375.017.562.026C69.955,13.48,69.964,13.593,69.964,13.718Z"/><polygon points="101.958 31.479 91.406 31.479 91.406 27.674 105.382 27.674 105.382 21.536 100.382 16.536 91.406 16.536 91.406 13.837 106.634 13.837 106.634 7.195 101.634 2.195 80.063 2.195 80.063 38.122 85.063 43.122 106.958 43.122 106.958 36.479 101.958 31.479"/><path d="M135.417,41.285A19.377,19.377,0,0,1,135.093,39q-.1-1.209-.14-2.365t-.081-2.013a27.264,27.264,0,0,0-.3-2.717,10.744,10.744,0,0,0-.707-2.491,6.787,6.787,0,0,0-1.253-1.962,4.653,4.653,0,0,0-1.939-1.233v-.1a7.281,7.281,0,0,0,3.5-3.522,12.989,12.989,0,0,0,1.07-5.485,12.273,12.273,0,0,0-.586-3.849,9.7,9.7,0,0,0-1.7-3.144q-.252-.308-.525-.584c-.626-.634-4.988-5-5.268-5.26a8.125,8.125,0,0,0-1.873-1.295,7.7,7.7,0,0,0-3.5-.78H106.24V38.122l5,5h6.343V29.083h6.079c.022.148.051.279.069.435q.243,2.163.364,4.528a16.929,16.929,0,0,0,.646,4.076l5,5h6.342A5.972,5.972,0,0,1,135.417,41.285ZM117.583,13.334h6.309a5.76,5.76,0,0,1-1.09,3.906,4.187,4.187,0,0,1-3.272,1.208h-1.947Z"/><polygon points="141.748 2.195 135.405 2.195 135.405 38.122 140.405 43.122 146.748 43.122 146.748 7.195 141.748 2.195"/><path d="M178.386,2.195h-8.928L164.8,20.213,161.25,7.2l-5-5h-8.928V38.122l5,5h5.938V30.453l2.151,7.669,5,5H170.3l2.15-7.742v2.742l5,5h5.938V7.2Z"/><polygon points="205.855 31.479 195.303 31.479 195.303 27.674 209.28 27.674 209.28 21.536 204.28 16.536 195.303 16.536 195.303 13.837 210.532 13.837 210.532 7.195 205.532 2.195 183.96 2.195 183.96 38.122 188.96 43.122 210.855 43.122 210.855 36.479 205.855 31.479"/><polygon points="234.495 2.195 228.557 2.195 228.557 21.449 221.438 7.195 216.438 2.195 210.136 2.195 210.136 38.122 215.136 43.122 221.075 43.122 221.075 23.931 228.153 38.122 233.153 43.122 239.495 43.122 239.495 7.195 234.495 2.195"/><polygon points="261.439 2.195 237.808 2.195 237.808 8.837 242.808 13.837 246.453 13.837 246.453 38.122 251.453 43.122 257.794 43.122 257.794 13.837 266.439 13.837 266.439 7.195 261.439 2.195"/><path d="M291.181,27.5a9.99,9.99,0,0,0-2.443-3.094,10.411,10.411,0,0,0-2.374-1.485c-.062-.139-.113-.29-.183-.421a9.912,9.912,0,0,0-5.291-4.78q-1.435-.528-2.242-.73-2.073-.654-3.538-1.131a3.577,3.577,0,0,1,.338-1.215,4.012,4.012,0,0,1,1.03-1.258,3.692,3.692,0,0,1,1.394-.7,6.018,6.018,0,0,1,1.534-.2c.23,0,.443.022.663.037.011.132.026.258.033.4l5,5h6.14a13.312,13.312,0,0,0-.95-5.309,9.921,9.921,0,0,0-2.564-3.6c-.766-.667-3.975-4.1-5-5a9.957,9.957,0,0,0-3.7-2.038,14.943,14.943,0,0,0-4.343-.629,12.1,12.1,0,0,0-3.878.654,10.016,10.016,0,0,0-3.474,2.013,10.2,10.2,0,0,0-2.484,3.4,11.271,11.271,0,0,0-.949,4.805,10.594,10.594,0,0,0,.747,4.2A8.681,8.681,0,0,0,266.61,19.3c.807.772,4.192,4.229,5,5a10.391,10.391,0,0,0,2.747,1.887,23.688,23.688,0,0,0,3.15,1.233q1.576.554,3.111,1.006c.155.046.291.1.442.149a3.953,3.953,0,0,1-.554,2.021,4.236,4.236,0,0,1-1.414,1.384,5.42,5.42,0,0,1-1.818.679,10.138,10.138,0,0,1-1.817.176,7.959,7.959,0,0,1-1.269-.1,10.107,10.107,0,0,1-.114-1.539l-5-5h-6.14a14.349,14.349,0,0,0,.97,5.737,11,11,0,0,0,2.726,3.975c.787.715,4.033,4.122,5,5a10.765,10.765,0,0,0,3.958,2.289,14.871,14.871,0,0,0,4.626.73,14.518,14.518,0,0,0,5.191-.856,10.385,10.385,0,0,0,3.757-2.39,9.974,9.974,0,0,0,2.282-3.648,13.3,13.3,0,0,0,.767-4.578A10.5,10.5,0,0,0,291.181,27.5Z"/></g><text class="cls-2" transform="translate(2.213 43.122) scale(0.803 1)">EXPERIMENTS</text></g></g></svg>