<svg xmlns="http://www.w3.org/2000/svg" viewBox="0 0 241.355 314.23"><defs><style>.cls-1,.cls-2{stroke:#000;stroke-width:4px;}.cls-1{stroke-miterlimit:10;}.cls-2{fill:#fff;stroke-linejoin:round;}.cls-3{font-size:40.855px;font-family:HelveticaNeue-CondensedBold, Helvetica Neue;font-weight:700;}</style></defs><title>github</title><g id="Layer_2" data-name="Layer 2"><g id="Experiments_Page" data-name="Experiments Page"><g id="Github"><path class="cls-1" d="M112.223,195.206a3.093,3.093,0,0,0,1.7-3.133q0-.393-.066-7.1t-.066-11.681l-3.011-.883a47.65,47.65,0,0,1-7.267-2.93c-1.851-.889-5.686-3.048-5.686-3.048l16.226-7.029s2.924-8.981,6.414-10.5a143.534,143.534,0,0,1-13.419-8.615,99.354,99.354,0,0,1-12.306-10.846A70.056,70.056,0,0,1,84.2,115.759a70.957,70.957,0,0,1-6.873-16.952,78.565,78.565,0,0,1-2.683-20.89A35.6,35.6,0,0,1,75.926,68c.536.6,1.042,1.17,1.486,1.681A105.514,105.514,0,0,1,102.55,78a143.519,143.519,0,0,1,25.14,15.126l4.975-.821a51.658,51.658,0,0,1,12.042-.146q6.939.618,10.609,3.508,5.889,17.541,1.045,27.194,10.343,15.953,10.345,31.8a63.118,63.118,0,0,1-1.38,13.945c-2.6-.717-8.322-2.655-8.322-2.655l-36.252,16.9s6.806,13.3,6.806,21.764v27.623a8.12,8.12,0,0,0,1.638,4.69,9,9,0,0,0,5.171,3.326q18.986,2.553,33.6-3.25c5.845-2.321,32.808-15.258,38.791-18a52.829,52.829,0,0,0,13.421-8.876q19.176-17.305,19.179-50.168-.007-27.36-13.488-56.755a195.868,195.868,0,0,0-36.593-53.657Q166.164,25.282,138.8,12.524T88.331,2.475A59.17,59.17,0,0,0,70.363,7.364c-6.148,2.83-33.642,15.229-39.982,18.8a51.173,51.173,0,0,0-14.9,12.746Q2,55.73,2,83.089q0,32.867,19.181,68.056a193.745,193.745,0,0,0,49.554,59.439q3.535,2.3,5.236,1.526C77.106,211.593,111.089,195.722,112.223,195.206Z"/><path class="cls-2" d="M189.614,120.107A195.864,195.864,0,0,0,153.022,66.45q-23.11-24.264-50.472-37.021T52.079,19.38Q28.97,22.089,15.486,38.909T2,83.089q0,32.867,19.18,68.057a193.77,193.77,0,0,0,49.555,59.438q3.535,2.3,5.236,1.526a3.091,3.091,0,0,0,1.7-3.132q0-.393-.066-7.1T77.541,190.2l-3.012-.883a47.645,47.645,0,0,1-7.266-2.93,82.708,82.708,0,0,1-9.1-5.16,38.084,38.084,0,0,1-8.772-8.015,30.574,30.574,0,0,1-5.76-10.737l-1.309-3.623a58.519,58.519,0,0,0-4.124-8.6,31.279,31.279,0,0,0-5.695-7.63l-.916-1.084a19.043,19.043,0,0,1-1.7-2.366,12.941,12.941,0,0,1-1.178-2.382q-.393-1.1.655-1.2a9.183,9.183,0,0,1,3.8,1.186l2.617,1.611a36.27,36.27,0,0,1,6.481,6.164,41.13,41.13,0,0,1,6.349,9.767,44.6,44.6,0,0,0,7.267,11.572,27.113,27.113,0,0,0,8.575,6.813,44.891,44.891,0,0,0,7.462,2.827,22.793,22.793,0,0,0,5.892.782q1.177-8.226,6.414-10.5A143.965,143.965,0,0,1,70.8,157.2a99.364,99.364,0,0,1-12.3-10.847,70.02,70.02,0,0,1-10.54-13.685,70.957,70.957,0,0,1-6.873-16.952A78.53,78.53,0,0,1,38.4,94.822q0-15.845,10.343-22.148-4.845-14.172.916-26.28,3.8.591,11.26,7.017T71.847,63.55q3.471,3.711,5.565,6.13A105.514,105.514,0,0,1,102.55,78a143.519,143.519,0,0,1,25.14,15.126l4.975-.821a51.658,51.658,0,0,1,12.042-.146q6.941.618,10.609,3.508,5.889,17.541,1.045,27.194,10.343,15.953,10.345,31.8,0,11.129-2.684,18.451t-6.936,10.514a20.374,20.374,0,0,1-10.607,3.76,42.48,42.48,0,0,1-12.308-.633,96.4,96.4,0,0,1-13.419-3.9q6.806,9.063,6.806,21.764v27.623a8.12,8.12,0,0,0,1.638,4.69,9,9,0,0,0,5.171,3.326q30.376,4.086,49.556-13.222t19.18-50.169Q203.1,149.5,189.614,120.107Z"/><text class="cls-3" transform="matrix(1, 0.466, 0, 1, 42.434, 244.416)">GITHUB</text></g></g></g></svg>