<?xml version="1.0" encoding="utf-8"?>
<!-- Generator: Adobe Illustrator 24.0.2, SVG Export Plug-In . SVG Version: 6.00 Build 0)  -->
<svg version="1.1" id="Layer_1" xmlns="http://www.w3.org/2000/svg" xmlns:xlink="http://www.w3.org/1999/xlink" x="0px" y="0px"
	 viewBox="0 0 1316.3 308" style="enable-background:new 0 0 1316.3 308;" xml:space="preserve">
<style type="text/css">
	.st0{opacity:0.64;}
	.st1{opacity:0.62;fill:#1D1D1B;stroke:#FFFFFF;stroke-miterlimit:10;enable-background:new    ;}
	.st2{opacity:0.48;fill:#1D1D1B;stroke:#FFFFFF;stroke-miterlimit:10;enable-background:new    ;}
	.st3{fill:#1D1D1B;stroke:#FFFFFF;stroke-miterlimit:10;}
	.st4{opacity:0.71;fill:#1D1D1B;stroke:#FFFFFF;stroke-miterlimit:10;enable-background:new    ;}
	.st5{opacity:0.51;fill:#1D1D1B;stroke:#FFFFFF;stroke-miterlimit:10;enable-background:new    ;}
	.st6{opacity:0.31;fill:#1D1D1B;stroke:#FFFFFF;stroke-miterlimit:10;enable-background:new    ;}
	.st7{opacity:0.66;fill:#1D1D1B;stroke:#FFFFFF;stroke-miterlimit:10;enable-background:new    ;}
	.st8{opacity:0.29;fill:#1D1D1B;stroke:#FFFFFF;stroke-miterlimit:10;enable-background:new    ;}
	.st9{opacity:0.37;fill:#1D1D1B;stroke:#FFFFFF;stroke-miterlimit:10;enable-background:new    ;}
</style>
<title>grid</title>
<g id="Layer_2_1_">
	<g id="Grid" class="st0">
		<line class="st1" x1="1245.9" y1="308" x2="659.7" y2="35"/>
		<line class="st2" x1="232.6" y1="307.6" x2="739.3" y2="71.6"/>
		<line class="st3" x1="396.5" y1="307.6" x2="820.3" y2="109.9"/>
		<line class="st4" x1="554.1" y1="307.6" x2="899.6" y2="146.4"/>
		<line class="st3" x1="712.6" y1="307.6" x2="978.9" y2="183.8"/>
		<line class="st5" x1="876.4" y1="307.6" x2="1060.8" y2="222.1"/>
		<line class="st5" x1="1036.7" y1="307.6" x2="1140.9" y2="259.5"/>
		<line class="st6" x1="1197" y1="307.6" x2="1221.1" y2="296"/>
		<line class="st3" x1="1085.7" y1="307.6" x2="579" y2="71.6"/>
		<line class="st7" x1="921.9" y1="307.6" x2="498" y2="109.9"/>
		<line class="st3" x1="764.2" y1="307.6" x2="418.7" y2="146.4"/>
		<line class="st3" x1="605.7" y1="307.6" x2="339.5" y2="183.8"/>
		<line class="st7" x1="441.9" y1="307.6" x2="257.5" y2="222.1"/>
		<line class="st8" x1="282.5" y1="307.6" x2="178.3" y2="259.5"/>
		<line class="st8" x1="122.2" y1="307.6" x2="98.1" y2="296"/>
		<line class="st9" x1="74.1" y1="307.6" x2="660.3" y2="34.5"/>
	</g>
</g>
</svg>
