<svg xmlns="http://www.w3.org/2000/svg" viewBox="0 0 291.355 277.044"><defs><style>.cls-1{font-size:38.763px;font-family:HelveticaNeue-CondensedBold, Helvetica Neue;font-weight:700;}.cls-2,.cls-3{stroke:#000;stroke-miterlimit:10;stroke-width:4px;}.cls-3{fill:#fff;}</style></defs><title>jsfiddle</title><g id="Layer_2" data-name="Layer 2"><g id="Experiments_Page" data-name="Experiments Page"><g id="JSFiddle"><text class="cls-1" transform="matrix(1, 0.466, 0, 1, 47.663, 195.424)">JSFIDDLE</text><path class="cls-2" d="M256.764,121.118c.144-1.775.281-3.529.281-5.4,0-39.656-32.149-86.788-71.8-105.276-18.435-8.6-35.225-9.456-47.92-3.938-6.565,2.853-21.267,10.014-21.267,10.014S103.47,7.438,98.874,5.3C88.183.31,79.238,1.751,71.868,4.574c-7.662,2.935-30.883,12.81-37.549,17.784-5.228,3.9-8.368,10.56-8.368,19.42a43.57,43.57,0,0,0,1.1,9.308C12.129,52.277,2,63.371,2,81.577c0,26.526,21.5,58.047,48.015,70.412L205.089,224.3c13.432,6.264,25.571,6.407,34.282,1.575,5.52-3.062,29.279-13.252,35.709-16.6,8.813-4.595,14.275-14.139,14.275-27.508C289.371,160.644,275.719,136.385,256.764,121.118Z"/><path class="cls-3" d="M220.511,138.023c.145-1.775.282-3.53.282-5.4,0-39.656-32.149-86.788-71.8-105.276-28.955-13.5-53.855-7.92-65.2,11.481A64.131,64.131,0,0,0,62.622,22.2c-20.259-9.447-36.671-.68-36.671,19.578a43.57,43.57,0,0,0,1.1,9.308C12.129,52.277,2,63.371,2,81.577c0,26.526,21.5,58.047,48.015,70.412L205.088,224.3c26.518,12.366,48.015.893,48.015-25.633C253.119,177.549,239.466,153.29,220.511,138.023Zm-2.8,39.629c-1.642,16.6-13.718,29.55-42.665,16.052-21.891-10.209-42.713-43.169-51.8-60.3-.024-.051-16.967-34.116-35.721-42.185-18.343-7.894-23.179-.5-24.007,7.76s4.119,19.46,12.011,27.219c9.912,9.707,22.262,12.344,34.772,7.332l12.269,19.922c-12.084,4.824-24.972,4.188-37.193-1.5a66.925,66.925,0,0,1-18.448-13.083C52.179,124.373,43.3,104.141,44.849,88.517,46.491,71.9,58.575,58.954,87.522,72.453c25.834,12.046,43.984,44.018,49.9,54.982,9.791,18.186,26.872,42.5,37.62,47.511,18.36,8.561,23.179.486,24.007-7.768s-4.119-19.46-12.011-27.211c-9.9-9.7-22.254-12.332-34.764-7.329L140,112.725c18.432-7.343,38.706-2.032,55.641,14.594C210.4,141.8,219.272,162.031,217.712,177.652Z"/></g></g></g></svg>