<?xml version="1.0" encoding="utf-8"?>
<!-- Generator: Adobe Illustrator 24.0.2, SVG Export Plug-In . SVG Version: 6.00 Build 0)  -->
<svg version="1.1" id="Layer_1" xmlns="http://www.w3.org/2000/svg" xmlns:xlink="http://www.w3.org/1999/xlink" x="0px" y="0px"
	 viewBox="0 0 625.9 475" style="enable-background:new 0 0 625.9 475;" xml:space="preserve">
<style type="text/css">
	.st0{display:none;}
	.st1{display:inline;}
	.st2{stroke:#000000;stroke-width:5;stroke-miterlimit:10;}
	.st3{fill:#FFFFFF;}
	.st4{display:inline;stroke:#000000;stroke-width:5;stroke-miterlimit:10;}
	.st5{stroke:#000000;stroke-width:7;stroke-miterlimit:10;}
</style>
<title>Asset 3</title>
<g id="Layer_2_1_" class="st0">
	<g id="Layer_5" class="st1">
		<path class="st2" d="M107.9,214.7l-30.7,14.5v108.1c0,7.5-0.8,13.5-2.4,18.2l-24.9-10l-28,13.2v6.6c-0.1,5.4,0.5,10.9,1.7,16.2
			c1.1,4.8,3.2,8.6,6.3,11.1c1.5,1.3,43.3,16.3,48.5,16s11.8-2.3,19.9-6.1c15.5-7.3,27-16.1,34.5-26.5c7.5-10.4,11.3-23.7,11.3-39.8
			v-109L107.9,214.7z"/>
		<path class="st2" d="M262.7,215.2c-1.1-9.2-3.4-16.4-7-21.6c-2-2.8-47.4-20.9-51.7-21.3c-6.8-0.7-16,1.7-27.5,7.1
			s-20.7,11.7-27.5,18.8c-6.6,6.8-11.9,14.8-15.7,23.6c-3.7,9-6.1,18.5-7,28.2c-1.1,10.8-1.6,21.6-1.6,32.4
			c-0.1,10.4,0.5,20.8,1.6,31.1c1.1,9.1,3.6,16.1,7,21.5c2.6,4.1,47.4,20.7,51.7,21c6.8,0.5,16-2,27.5-7.4s20.7-11.6,27.5-18.5
			c6.7-6.7,12-14.6,15.6-23.3c3.7-9,6.1-18.4,7-28.1c1.1-10.8,1.6-21.7,1.6-32.6C264.4,235.8,263.9,225.5,262.7,215.2z M191.5,280.5
			c0-10.2,0.2-18.9,0.7-26.2c0.4-6.3,1.4-12.6,3-18.8c0.5-1.9,1.2-3.8,2-5.6c0.2,5.4-1.9,10.1-2,17c0.1,10.1-0.2,18.9-0.7,26.2
			c-0.3,6.4,1,13.9-0.7,20.1c-0.5,1.9-1.2,3.8-2,5.6C191.5,293.4,191.4,287.3,191.5,280.5z"/>
		<polygon class="st2" points="343.4,103.7 312.8,118.2 312.8,147.4 277,135 246.3,149.5 246.3,300.8 282.3,315 313.3,301 
			313.2,269.7 349.3,284 379.3,270 379.5,116.2 		"/>
		<polygon class="st2" points="465.7,46.1 437.6,59.3 437.6,92.7 436.2,89.5 400.1,77 364.7,93.7 364.7,245 401.3,260 429.3,247 
			429.1,210.1 430.8,213.9 467.3,229 501.3,213 501.8,58.6 		"/>
		<path class="st2" d="M621.8,46c-1.1-9.2-3.4-16.4-7-21.6c-2-2.8-47.5-20.9-51.8-21.3c-6.8-0.7-16,1.7-27.5,7.1S514.9,21.9,508,29
			c-6.6,6.8-11.9,14.8-15.7,23.6c-3.7,9-6.1,18.5-7,28.2c-1.1,10.8-1.6,21.6-1.6,32.4c-0.1,10.4,0.5,20.7,1.6,31.1
			c1.1,9.1,3.4,16.3,7,21.5c2,2.8,47.2,20.7,51.8,21c6.8,0.5,16-2,27.5-7.4s20.7-11.6,27.5-18.4c6.7-6.7,12-14.6,15.7-23.3
			c3.7-9,6.1-18.4,7-28.1c1.1-10.8,1.6-21.7,1.6-32.6C623.4,66.7,622.9,56.3,621.8,46z M550.5,111.4c0-10.2,0.2-18.9,0.8-26.2
			c0.3-6.3,1.4-12.6,3-18.8c0.5-2,1.2-4,2.1-5.8c0.2,5.4-2.4,12.2-2.4,19.2c-0.2,10.1-0.4,18.9-0.9,26.3c-0.3,6.4,1.5,11.9-0.2,18.1
			c-0.5,1.9-1.2,3.8-2,5.6C550.6,124.3,550.5,118.2,550.5,111.4z"/>
		<g id="Name_Front">
			<path class="st3" d="M77,406.1c-4,0-7-1-9.4-3c-2.6-2.2-4.5-5.5-5.5-9.8c-1.1-5.1-1.7-10.3-1.6-15.6v-5l23.1-10.9v0.7
				c0,8.6,1,14.5,3,17.9c1.4,2.4,3.9,3.8,6.7,3.7c2.6-0.1,5.2-0.8,7.5-2c6.1-2.9,10.2-7,12.2-12.4c1.9-5,2.8-11.7,2.8-20V243.2
				l25.6-12.1v105c0,15.5-3.6,28.4-10.8,38.3s-18.5,18.7-33.5,25.8c-7.8,3.6-14.1,5.6-19,5.9L77,406.1z"/>
			<path d="M139,235.1v101.1c0,15-3.5,27.4-10.3,36.8c-7,9.7-17.9,18-32.6,25c-7.5,3.5-13.5,5.4-18,5.6H77c-3.4,0-5.9-0.8-7.8-2.4
				c-2.2-1.9-3.8-4.7-4.6-8.5c-1.1-4.9-1.6-10-1.6-15v-3.4l18.2-8.5c0.2,7.4,1.3,12.5,3.3,16c1.8,3.2,5.2,5.1,8.8,5
				c3-0.1,5.9-0.9,8.6-2.3c6.7-3.2,11.3-7.8,13.5-13.8c2-5.3,3-12.2,3-20.9v-105L139,235.1 M144.1,227.2l-30.7,14.5v108.1
				c0,8.1-0.9,14.4-2.7,19.2c-1.8,4.7-5.4,8.4-11,11c-2,1.1-4.2,1.7-6.5,1.8c-1.9,0.1-3.6-0.9-4.5-2.5c-1.8-3.1-2.7-8.6-2.7-16.7
				v-4.7l-28.1,13.3v6.6c-0.1,5.4,0.5,10.9,1.7,16.2c1.1,4.8,3.2,8.6,6.3,11.1c2.8,2.4,6.4,3.5,11,3.5c0.4,0,0.9,0,1.4,0
				c5.2-0.2,11.8-2.3,19.9-6.1c15.5-7.3,27-16.2,34.5-26.6c7.5-10.4,11.3-23.7,11.3-39.8L144.1,227.2L144.1,227.2z"/>
			<path class="st3" d="M186.8,353.5c-0.5,0-1,0-1.5,0c-6.1-0.4-10.6-2.9-13.8-7.5c-3.4-4.9-5.6-11.7-6.6-20.4
				c-1.1-10.2-1.6-20.5-1.6-30.8c0-10.7,0.5-21.5,1.6-32.2c0.9-9.5,3.2-18.7,6.8-27.5c3.6-8.5,8.7-16.2,15.1-22.8
				c6.6-6.9,15.6-13,26.7-18.2c9.8-4.6,17.9-7,24.1-7c0.7,0,1.4,0,2.1,0.1c6.1,0.6,10.6,3.1,13.9,7.8c3.4,4.9,5.6,11.7,6.6,20.5
				c1.1,10.2,1.6,20.4,1.6,30.6c0,10.8-0.5,21.6-1.6,32.3c-0.9,9.4-3.2,18.7-6.8,27.4c-3.5,8.4-8.7,16-15.1,22.5
				c-6.6,6.7-15.6,12.7-26.8,18C201.3,351.1,193,353.5,186.8,353.5z M221.3,209.5c-3.4,0.2-6.7,1-9.7,2.6c-4.5,2.1-8.6,5.1-11.8,8.9
				c-3.2,4.1-5.6,8.8-6.9,13.8c-1.7,6.3-2.7,12.8-3.1,19.3c-0.5,7.3-0.8,16.2-0.8,26.4s0.2,18.9,0.8,25.8c0.5,7.2,1.6,12.7,3.1,16.7
				c1.8,4.5,4.5,7.3,8.1,8.2c1,0.3,2,0.4,3,0.4l0,0c3.4-0.2,6.7-1,9.7-2.6c4.5-2.1,8.6-5.1,11.8-8.9c3.2-4,5.5-8.7,6.9-13.7
				c1.7-6.3,2.7-12.8,3.1-19.3c0.5-7.4,0.8-16.3,0.8-26.5s-0.2-18.8-0.8-25.7c-0.5-7.1-1.6-12.6-3.1-16.7c-1.8-4.6-4.5-7.4-8.1-8.4
				C223.3,209.6,222.3,209.5,221.3,209.5L221.3,209.5z"/>
			<path d="M237.7,189.7L237.7,189.7c0.6,0,1.2,0,1.9,0.1c5.3,0.5,9.3,2.7,12,6.7c3.1,4.5,5.2,11,6.2,19.3
				c1.1,10.1,1.6,20.2,1.6,30.4c0,10.7-0.5,21.4-1.6,32c-0.9,9.2-3.2,18.2-6.7,26.7c-3.4,8.1-8.4,15.5-14.6,21.7
				c-6.4,6.4-15.1,12.3-26,17.4c-9.9,4.6-17.8,7-23.7,7c-0.4,0-0.9,0-1.3,0c-5.3-0.4-9.1-2.5-11.9-6.4c-3.1-4.5-5.2-11-6.2-19.2
				c-1.1-10.1-1.6-20.3-1.6-30.5c0-10.7,0.5-21.3,1.5-31.9c0.9-9.2,3.1-18.2,6.7-26.8c3.5-8.2,8.4-15.7,14.6-22.1
				c6.4-6.6,15.1-12.6,26-17.7C224.2,191.9,232,189.7,237.7,189.7 M203.9,334.1c3.8-0.1,7.4-1.1,10.8-2.9c4.9-2.2,9.2-5.5,12.7-9.6
				c3.4-4.3,5.9-9.3,7.3-14.5c1.7-6.5,2.8-13.1,3.2-19.9c0.5-7.5,0.8-16.4,0.8-26.6s-0.2-19-0.8-25.9c-0.5-7.4-1.6-13.1-3.3-17.4
				c-2.1-5.4-5.4-8.7-9.8-9.9c-1.2-0.3-2.4-0.5-3.6-0.5c-3.7,0.2-7.4,1.1-10.8,2.9c-4.9,2.2-9.2,5.5-12.7,9.6
				c-3.4,4.3-5.9,9.3-7.3,14.7c-1.7,6.5-2.8,13.1-3.2,19.8c-0.5,7.3-0.8,16.3-0.8,26.6s0.2,19,0.8,26c0.5,7.5,1.6,13.2,3.3,17.5
				c2.6,6.6,6.7,8.9,9.7,9.7C201.5,334,202.8,334.1,203.9,334.1 M237.7,184.7c-6.5,0-14.9,2.4-25.1,7.2
				c-11.5,5.4-20.7,11.7-27.5,18.8c-6.6,6.8-11.9,14.8-15.7,23.6c-3.7,9-6.1,18.5-7,28.2c-1.1,10.8-1.6,21.6-1.6,32.4
				c-0.1,10.4,0.5,20.8,1.6,31.1c1.1,9.1,3.4,16.3,7,21.5s8.8,8.1,15.6,8.5c0.5,0,1.1,0,1.6,0c6.6,0,15.2-2.5,25.8-7.5
				c11.5-5.4,20.7-11.6,27.5-18.5c6.7-6.7,12-14.6,15.6-23.3c3.7-9,6.1-18.4,7-28.1c1.1-10.8,1.6-21.7,1.6-32.6
				c0.1-10.3-0.5-20.7-1.6-30.9c-1.1-9.2-3.4-16.4-7-21.6c-3.6-5.2-8.8-8.2-15.6-8.8C239.3,184.7,238.5,184.7,237.7,184.7
				L237.7,184.7z M203.9,329.1c-0.8,0-1.6-0.1-2.3-0.3c-2.8-0.7-4.9-3-6.4-6.7c-1.5-3.8-2.5-9.1-3-16s-0.7-15.4-0.7-25.6
				s0.3-18.9,0.7-26.2c0.4-6.3,1.4-12.6,3-18.8c1.2-4.7,3.4-9.1,6.4-12.9c3-3.5,6.8-6.3,11-8.2c2.7-1.4,5.6-2.2,8.6-2.4
				c0.8,0,1.6,0.1,2.3,0.3c2.8,0.7,4.9,3,6.4,6.9c1.5,3.8,2.5,9.2,3,16s0.7,15.3,0.7,25.5c0,10.2-0.2,19-0.7,26.3
				c-0.3,6.4-1.3,12.6-3,18.8c-1.2,4.6-3.4,9-6.4,12.8c-3,3.5-6.8,6.3-11,8.2C209.9,328.1,207,328.9,203.9,329.1L203.9,329.1z"/>
			<polygon class="st3" points="284.9,163.5 310.6,151.4 310.6,209.3 351.4,190.1 351.4,132.2 377,120.1 377,266 351.4,278.1 
				351.4,210.9 310.6,230.1 310.6,297.3 284.9,309.4 			"/>
			<path d="M374.5,124.1v140.3l-20.7,9.7v-67.2l-7.1,3.4l-35.8,16.9l-2.9,1.4v67.2l-20.6,9.7V165.1l20.7-9.7v57.9l7.1-3.4L351,193
				l2.9-1.4v-57.9L374.5,124.1 M379.6,116.2l-30.7,14.4v57.9l-35.8,16.9v-57.9L282.5,162v151.3l30.7-14.5v-67.2l35.8-16.9V282
				l30.7-14.5C379.6,267.5,379.6,116.2,379.6,116.2z"/>
			<polygon class="st3" points="403.3,107.8 434.9,92.9 472,179.1 476.2,177.1 476.2,73.4 499.3,62.5 499.3,208.4 468.1,223.1 
				430.7,134.7 426.5,136.7 426.5,242.7 403.3,253.6 			"/>
			<path d="M496.8,66.5v140.3l-27.4,12.9l-35.5-83.6l-2-4.8l-4.7,2.2l-0.4,0.2l-2.9,1.3v106l-18.1,8.5V109.3l27.8-13.1l35,81.5
				l2,4.8l4.7-2.2l0.4-0.2l2.9-1.4V75L496.8,66.5 M501.8,58.6l-28.1,13.3v103.7l-0.4,0.2l-37.1-86.2l-35.4,16.7v151.4l28.1-13.2
				v-106l0.4-0.2l37.5,88.3l34.9-16.4L501.8,58.6L501.8,58.6z"/>
			<path class="st3" d="M545.8,184.4c-0.5,0-1,0-1.5,0c-6.1-0.4-10.6-2.9-13.8-7.5c-3.4-4.9-5.6-11.7-6.6-20.4
				c-1.1-10.2-1.6-20.5-1.6-30.8c0-10.8,0.5-21.5,1.6-32.2c0.9-9.5,3.2-18.7,6.9-27.5c3.6-8.5,8.7-16.2,15.1-22.8
				c6.5-6.9,15.5-13,26.7-18.3c9.8-4.6,17.9-7,24.1-7c0.7,0,1.4,0,2.1,0.1c6.1,0.6,10.6,3.1,13.8,7.8c3.4,4.9,5.6,11.7,6.6,20.5
				c1.1,10.2,1.6,20.4,1.6,30.7c0,10.8-0.5,21.6-1.6,32.3c-0.9,9.4-3.2,18.7-6.8,27.4c-3.5,8.4-8.7,16-15.1,22.5
				c-6.6,6.6-15.6,12.7-26.8,17.9C560.3,181.9,552,184.4,545.8,184.4z M580.3,40.3c-3.4,0.1-6.7,1-9.7,2.6C566,45,562,48,558.8,51.8
				c-3.2,4.1-5.6,8.8-6.9,13.8c-1.7,6.3-2.7,12.8-3.1,19.3c-0.5,7.3-0.8,16.2-0.8,26.4s0.3,18.9,0.8,25.8c0.5,7.2,1.5,12.7,3.2,16.7
				c1.8,4.5,4.5,7.3,8.1,8.2c1,0.3,2,0.4,3,0.4c3.4-0.2,6.7-1,9.7-2.6c4.5-2.1,8.6-5.1,11.8-8.9c3.2-4,5.5-8.7,6.9-13.7
				c1.7-6.3,2.8-12.8,3.1-19.3c0.5-7.4,0.8-16.3,0.8-26.5s-0.2-18.8-0.8-25.7c-0.5-7.2-1.6-12.6-3.2-16.7c-1.8-4.6-4.5-7.4-8.1-8.4
				C582.3,40.4,581.3,40.3,580.3,40.3z"/>
			<path d="M596.7,20.5L596.7,20.5c0.6,0,1.2,0,1.8,0.1c5.3,0.5,9.3,2.7,12,6.7c3.1,4.5,5.2,11,6.2,19.3c1.1,10.1,1.6,20.2,1.6,30.4
				c0,10.7-0.5,21.4-1.6,32c-0.9,9.2-3.2,18.2-6.7,26.7c-3.4,8.1-8.4,15.5-14.6,21.7c-6.4,6.4-15.1,12.3-26,17.4
				c-9.9,4.6-17.8,7-23.7,7c-0.5,0-0.9,0-1.3,0c-5.3-0.4-9.2-2.4-11.9-6.4c-3.1-4.5-5.2-11-6.2-19.2c-1.1-10.1-1.6-20.3-1.6-30.5
				c0-10.7,0.5-21.3,1.6-32c0.9-9.2,3.1-18.3,6.6-26.8c3.5-8.2,8.5-15.6,14.6-22c6.4-6.6,15.1-12.6,26-17.7
				C583.3,22.8,591,20.5,596.7,20.5 M563,164.9c3.8-0.2,7.4-1.1,10.8-2.9c4.9-2.2,9.3-5.5,12.7-9.6c3.4-4.3,5.9-9.3,7.3-14.6
				c1.7-6.5,2.8-13.1,3.2-19.8c0.5-7.4,0.8-16.4,0.8-26.7s-0.3-18.9-0.8-25.9c-0.5-7.4-1.6-13.1-3.3-17.4c-2.1-5.4-5.4-8.7-9.8-9.9
				c-1.2-0.3-2.4-0.5-3.6-0.5c-3.8,0.1-7.5,1.1-10.8,2.9c-4.9,2.2-9.2,5.5-12.7,9.6c-3.4,4.3-5.9,9.3-7.3,14.7
				c-1.7,6.5-2.8,13.1-3.2,19.8c-0.5,7.3-0.8,16.2-0.8,26.6s0.3,19,0.8,26c0.5,7.5,1.6,13.2,3.3,17.5c2.6,6.6,6.7,8.9,9.7,9.7
				C560.5,164.8,561.7,165,563,164.9 M596.7,15.5c-6.5,0-14.9,2.4-25.1,7.2c-11.5,5.4-20.7,11.7-27.5,18.8
				c-6.6,6.8-11.9,14.8-15.7,23.6c-3.7,9-6.1,18.5-7,28.2c-1.1,10.8-1.6,21.6-1.6,32.4c-0.1,10.4,0.5,20.7,1.6,31.1
				c1.1,9.1,3.4,16.3,7,21.5s8.8,8.1,15.7,8.5c0.5,0,1.1,0.1,1.6,0.1c6.6,0,15.2-2.5,25.8-7.5C583,174,592.2,167.8,599,161
				c6.7-6.7,12-14.6,15.7-23.3c3.7-9,6.1-18.4,7-28.1c1.1-10.8,1.6-21.7,1.6-32.6c0.1-10.3-0.5-20.7-1.6-30.9
				c-1.1-9.2-3.4-16.4-7-21.6s-8.8-8.2-15.7-8.8C598.3,15.5,597.6,15.5,596.7,15.5z M563,159.9c-0.8,0-1.6-0.1-2.3-0.3
				c-2.8-0.7-4.9-3-6.4-6.7c-1.5-3.8-2.5-9.1-3-16s-0.8-15.4-0.8-25.6s0.2-18.9,0.8-26.2c0.3-6.3,1.4-12.6,3-18.8
				c1.2-4.7,3.4-9.1,6.4-12.9c3-3.5,6.8-6.3,11-8.2c2.7-1.4,5.6-2.2,8.6-2.4c0.8,0,1.6,0.1,2.3,0.3c2.8,0.8,4.9,3,6.4,6.8
				s2.5,9.1,3,16c0.5,6.8,0.8,15.3,0.8,25.5s-0.2,18.9-0.8,26.3c-0.3,6.4-1.3,12.6-3,18.8c-1.2,4.6-3.4,9-6.4,12.8
				c-3,3.5-6.8,6.4-11,8.2C568.9,159,566,159.8,563,159.9L563,159.9z"/>
		</g>
	</g>
</g>
<g id="JOHNO_new">
	<g id="Name_Shadow" class="st0">
		<path class="st4" d="M125.5,225.7l-30.7,14.4v108.1c0,8.1-0.9,14.4-2.7,19.2c-1.2,3.1-3.1,5.7-5.9,7.9c-0.4-2.8-0.7-6.2-0.7-10.2
			v-4.7l-18-4l-28.1,13.2v6.6c0,5.9,0.6,11.3,1.7,16.2c1.1,4.8,3.2,8.5,6.3,11.1s25.2,7.8,30.4,7.5c5.2-0.3,11.8-2.3,19.9-6.1
			c15.5-7.3,27-16.1,34.5-26.5s11.3-23.7,11.3-39.8v-109L125.5,225.7z"/>
		<path class="st4" d="M262.2,217.7c-1.1-9.2-3.4-16.4-7-21.6c-3.6-5.2-29.2-12.4-33.7-12.8c-6.8-0.7-16,1.7-27.5,7.1
			c-11.5,5.4-20.7,11.7-27.5,18.8s-12,15-15.7,23.6c-3.6,8.6-6,18-7,28.2c-1.1,10.2-1.6,21-1.6,32.4c0,11.6,0.5,21.9,1.6,31
			s3.6,16.1,7,21.5c4.8,7.5,29,12.2,33.7,12.5c6.8,0.5,16-2,27.5-7.4s20.7-11.6,27.5-18.5s12-14.6,15.7-23.3c3.6-8.6,6-18,7-28.1
			c1.1-10.1,1.6-21,1.6-32.6C263.8,237.2,263.3,226.9,262.2,217.7z M214.4,285.4c-0.5,7.4-1.5,13.6-3,18.8
			c-1.5,5.2-3.6,9.4-6.4,12.8c-2.6,3.2-6,5.8-10.2,7.9c0-0.1-0.1-0.2-0.1-0.3c-1.5-3.8-2.5-9.1-3-16S191,293.2,191,283
			s0.2-18.9,0.7-26.2c0.5-7.3,1.5-13.6,3-18.8s3.6-9.5,6.4-12.9c2.6-3.1,6-5.8,10.2-7.8c0,0.1,0.1,0.2,0.2,0.4c1.5,3.8,2.5,9.1,3,16
			c0.5,6.8,0.7,15.3,0.7,25.5C215.1,269.3,214.9,278.1,214.4,285.4z"/>
		<polygon class="st4" points="379,118.7 361,114.7 330.3,129.1 330.3,187 312.6,195.4 312.6,150 294.6,146 263.9,160.4 
			263.9,311.8 281.8,317.5 312.8,303.5 312.6,234.2 330.3,225.8 330.3,280.5 348.8,286.5 378.8,272.5 		"/>
		<polygon class="st4" points="483.2,57.1 455.1,70.3 455.1,137.3 435.6,92 417.6,88 382.3,104.7 382.3,256 400.8,262.5 
			428.8,249.5 428.4,178 448.3,224.9 466.8,231.5 500.8,215.5 501.2,61.1 		"/>
		<path class="st4" d="M621.2,48.5c-1.1-9.2-3.4-16.4-7-21.6S585,14.5,580.5,14.1c-6.8-0.7-16,1.7-27.5,7.1S532.3,32.9,525.5,40
			s-12,15-15.7,23.6c-3.6,8.6-6,18-7,28.2c-1.1,10.2-1.6,21-1.6,32.4c0,11.6,0.5,21.9,1.6,31s3.4,16.3,7,21.5
			c3.6,5.2,29,12.2,33.7,12.5c6.8,0.5,16-2,27.5-7.4s20.7-11.6,27.5-18.5s12-14.6,15.7-23.3c3.6-8.6,6-18,7-28.1
			c1.1-10.1,1.6-21,1.6-32.6C622.8,68,622.3,57.7,621.2,48.5z M573.4,116.2c-0.5,7.4-1.5,13.6-3,18.8s-3.6,9.4-6.4,12.8
			c-2.6,3.2-6,5.8-10.2,7.9c0-0.1-0.1-0.2-0.1-0.3c-1.5-3.8-2.5-9.1-3-16S550,124,550,113.8s0.2-18.9,0.7-26.2s1.5-13.6,3-18.8
			s3.6-9.5,6.4-12.9c2.6-3.2,6-5.8,10.2-7.8c0,0.1,0.1,0.2,0.2,0.4c1.5,3.8,2.5,9.1,3,16c0.5,6.8,0.7,15.3,0.7,25.5
			S573.9,108.9,573.4,116.2z"/>
	</g>
	<g id="Name_Shadow_2_" class="st0">
		<path class="st4" d="M125.5,225.7l-30.7,14.4v108.1c0,8.1-0.9,14.4-2.7,19.2c-1.2,3.1-3.1,5.7-5.9,7.9c-0.4-2.8-0.7-6.2-0.7-10.2
			v-4.7l-18-4l-28.1,13.2v6.6c0,5.9,0.6,11.3,1.7,16.2c1.1,4.8,3.2,8.5,6.3,11.1s25.2,7.8,30.4,7.5c5.2-0.3,11.8-2.3,19.9-6.1
			c15.5-7.3,27-16.1,34.5-26.5s11.3-23.7,11.3-39.8v-109L125.5,225.7z"/>
		<path class="st4" d="M262.2,217.7c-1.1-9.2-3.4-16.4-7-21.6c-3.6-5.2-29.2-12.4-33.7-12.8c-6.8-0.7-16,1.7-27.5,7.1
			c-11.5,5.4-20.7,11.7-27.5,18.8s-12,15-15.7,23.6c-3.6,8.6-6,18-7,28.2c-1.1,10.2-1.6,21-1.6,32.4c0,11.6,0.5,21.9,1.6,31
			s3.6,16.1,7,21.5c4.8,7.5,29,12.2,33.7,12.5c6.8,0.5,16-2,27.5-7.4s20.7-11.6,27.5-18.5s12-14.6,15.7-23.3c3.6-8.6,6-18,7-28.1
			c1.1-10.1,1.6-21,1.6-32.6C263.8,237.2,263.3,226.9,262.2,217.7z M214.4,285.4c-0.5,7.4-1.5,13.6-3,18.8
			c-1.5,5.2-3.6,9.4-6.4,12.8c-2.6,3.2-6,5.8-10.2,7.9c0-0.1-0.1-0.2-0.1-0.3c-1.5-3.8-2.5-9.1-3-16S191,293.2,191,283
			s0.2-18.9,0.7-26.2c0.5-7.3,1.5-13.6,3-18.8s3.6-9.5,6.4-12.9c2.6-3.1,6-5.8,10.2-7.8c0,0.1,0.1,0.2,0.2,0.4c1.5,3.8,2.5,9.1,3,16
			c0.5,6.8,0.7,15.3,0.7,25.5C215.1,269.3,214.9,278.1,214.4,285.4z"/>
		<polygon class="st4" points="379,118.7 361,114.7 330.3,129.1 330.3,187 312.6,195.4 312.6,150 294.6,146 263.9,160.4 
			263.9,311.8 281.8,317.5 312.8,303.5 312.6,234.2 330.3,225.8 330.3,280.5 348.8,286.5 378.8,272.5 		"/>
		<polygon class="st4" points="483.2,57.1 455.1,70.3 455.1,137.3 435.6,92 417.6,88 382.3,104.7 382.3,256 400.8,262.5 
			428.8,249.5 428.4,178 448.3,224.9 466.8,231.5 500.8,215.5 501.2,61.1 		"/>
		<path class="st4" d="M621.2,48.5c-1.1-9.2-3.4-16.4-7-21.6S585,14.5,580.5,14.1c-6.8-0.7-16,1.7-27.5,7.1S532.3,32.9,525.5,40
			s-12,15-15.7,23.6c-3.6,8.6-6,18-7,28.2c-1.1,10.2-1.6,21-1.6,32.4c0,11.6,0.5,21.9,1.6,31s3.4,16.3,7,21.5
			c3.6,5.2,29,12.2,33.7,12.5c6.8,0.5,16-2,27.5-7.4s20.7-11.6,27.5-18.5s12-14.6,15.7-23.3c3.6-8.6,6-18,7-28.1
			c1.1-10.1,1.6-21,1.6-32.6C622.8,68,622.3,57.7,621.2,48.5z M573.4,116.2c-0.5,7.4-1.5,13.6-3,18.8s-3.6,9.4-6.4,12.8
			c-2.6,3.2-6,5.8-10.2,7.9c0-0.1-0.1-0.2-0.1-0.3c-1.5-3.8-2.5-9.1-3-16S550,124,550,113.8s0.2-18.9,0.7-26.2s1.5-13.6,3-18.8
			s3.6-9.5,6.4-12.9c2.6-3.2,6-5.8,10.2-7.8c0,0.1,0.1,0.2,0.2,0.4c1.5,3.8,2.5,9.1,3,16c0.5,6.8,0.7,15.3,0.7,25.5
			S573.9,108.9,573.4,116.2z"/>
	</g>
	<g id="Name_Front_1_" class="st0">
		<g class="st1">
			<path class="st3" d="M76.4,408.6c-4,0-7-1-9.4-2.9c-2.6-2.2-4.5-5.5-5.5-9.8c-1.1-4.6-1.6-9.9-1.6-15.6v-5L83,364.4v0.7
				c0,8.6,1,14.5,3,17.9c1.4,2.4,3.7,3.7,6.7,3.7c2.1,0,4.6-0.7,7.5-2c6.1-2.9,10.2-7,12.2-12.4c1.9-5,2.8-11.7,2.8-20V245.7
				l25.7-12.1v105c0,15.5-3.6,28.4-10.8,38.3c-7.2,10-18.5,18.7-33.5,25.7c-7.8,3.7-14.1,5.6-19,5.9
				C77.2,408.6,76.8,408.6,76.4,408.6z"/>
			<path d="M138.5,237.5v101.1c0,15-3.5,27.4-10.3,36.8c-7,9.7-17.9,18.1-32.6,24.9c-7.5,3.5-13.5,5.4-18,5.6c-0.4,0-0.7,0-1.1,0
				c-3.4,0-5.9-0.8-7.8-2.4c-2.2-1.9-3.8-4.7-4.6-8.5c-1-4.4-1.6-9.5-1.6-15v-3.4l18.2-8.6c0.2,7.4,1.3,12.5,3.3,16
				c1.9,3.2,5,5,8.8,5c2.5,0,5.3-0.7,8.6-2.3c6.7-3.2,11.3-7.8,13.5-13.8c2-5.3,3-12.2,3-20.9V247.3L138.5,237.5 M143.5,229.7
				l-30.7,14.4v108.1c0,8.1-0.9,14.4-2.7,19.2c-1.8,4.7-5.4,8.4-11,11c-2.6,1.2-4.7,1.8-6.5,1.8c-2,0-3.6-0.8-4.5-2.5
				c-1.8-3-2.7-8.6-2.7-16.7v-4.7l-28.1,13.2v6.6c0,5.9,0.6,11.3,1.7,16.2c1.1,4.8,3.2,8.5,6.3,11.1c2.8,2.4,6.4,3.5,11,3.5
				c0.4,0,0.9,0,1.4,0c5.2-0.3,11.8-2.3,19.9-6.1c15.5-7.3,27-16.1,34.5-26.5c7.5-10.4,11.3-23.7,11.3-39.8L143.5,229.7L143.5,229.7
				z"/>
		</g>
		<g class="st1">
			<path class="st3" d="M186.2,356c-0.5,0-1,0-1.5,0c-6.1-0.4-10.6-2.9-13.8-7.5c-3.4-4.9-5.6-11.7-6.6-20.4c-1-9-1.6-19.3-1.6-30.8
				c0-11.3,0.5-22.1,1.6-32.2c1-9.9,3.3-19.1,6.8-27.5c3.5-8.3,8.6-16,15.1-22.8c6.6-6.8,15.6-13,26.7-18.2c9.8-4.6,17.9-7,24.1-7
				c0.7,0,1.4,0,2.1,0.1c6.1,0.6,10.6,3.2,13.8,7.8c3.4,4.9,5.6,11.7,6.6,20.5c1,9,1.6,19.4,1.6,30.7c0,11.4-0.5,22.3-1.6,32.3
				c-1,9.8-3.3,19-6.8,27.4c-3.5,8.3-8.6,15.9-15.1,22.5c-6.6,6.6-15.6,12.7-26.8,18C200.8,353.6,192.5,356,186.2,356z M220.7,212
				c-2.8,0-6,0.9-9.7,2.6c-4.9,2.3-8.8,5.3-11.8,8.9c-3,3.6-5.3,8.2-6.9,13.8c-1.5,5.4-2.6,11.9-3.1,19.3
				c-0.5,7.3-0.8,16.2-0.8,26.4c0,10.2,0.3,18.9,0.8,25.8c0.5,7.2,1.5,12.7,3.2,16.7c1.8,4.5,4.5,7.3,8.1,8.2c0.9,0.2,1.9,0.4,3,0.4
				l0,0c2.8,0,6-0.9,9.7-2.6c4.9-2.3,8.8-5.3,11.8-8.9s5.3-8.2,6.9-13.7c1.5-5.3,2.6-11.8,3.1-19.3c0.5-7.4,0.8-16.3,0.8-26.5
				c0-10.2-0.3-18.8-0.8-25.7c-0.5-7.2-1.6-12.6-3.1-16.7c-1.8-4.6-4.5-7.4-8.1-8.4C222.7,212.1,221.7,212,220.7,212z"/>
			<path d="M237.2,192.2L237.2,192.2c0.6,0,1.3,0,1.9,0.1c5.3,0.5,9.3,2.7,12,6.7c3.1,4.5,5.2,11,6.2,19.3c1,9,1.6,19.2,1.6,30.4
				c0,11.4-0.5,22.1-1.6,32c-1,9.6-3.3,18.6-6.7,26.7c-3.4,8-8.3,15.3-14.6,21.7c-6.4,6.4-15.1,12.3-26,17.4c-9.9,4.7-17.8,7-23.7,7
				c-0.4,0-0.9,0-1.3,0c-5.3-0.4-9.2-2.4-11.9-6.4c-3.1-4.5-5.2-11-6.2-19.2c-1-8.9-1.6-19.1-1.6-30.5c0-11.2,0.5-22,1.6-31.9
				c1-9.6,3.3-18.7,6.7-26.8c3.4-8,8.3-15.4,14.6-22.1c6.4-6.6,15.1-12.6,26-17.7C223.7,194.4,231.4,192.2,237.2,192.2 M203.4,336.6
				c3.2,0,6.7-0.9,10.8-2.9c5.2-2.4,9.5-5.7,12.7-9.6s5.7-8.8,7.3-14.6c1.6-5.5,2.6-12.1,3.2-19.8c0.5-7.5,0.8-16.4,0.8-26.7
				c0-10.2-0.3-18.9-0.8-25.9c-0.5-7.4-1.6-13.1-3.3-17.4c-2.1-5.4-5.4-8.7-9.8-9.9c-1.1-0.3-2.3-0.5-3.6-0.5
				c-3.2,0-6.7,0.9-10.8,2.9c-5.2,2.4-9.5,5.7-12.7,9.6c-3.2,3.9-5.7,8.8-7.3,14.7c-1.6,5.5-2.6,12.2-3.2,19.8
				c-0.5,7.3-0.8,16.3-0.8,26.6c0,10.3,0.3,19,0.8,26c0.5,7.5,1.6,13.2,3.3,17.5c2.6,6.6,6.7,8.9,9.7,9.7
				C200.9,336.4,202.1,336.6,203.4,336.6 M237.2,187.2c-6.5,0-14.9,2.4-25.1,7.2c-11.5,5.4-20.7,11.7-27.5,18.8s-12,15-15.7,23.6
				c-3.6,8.6-6,18-7,28.2c-1.1,10.2-1.6,21-1.6,32.4c0,11.6,0.5,21.9,1.6,31s3.4,16.3,7,21.5s8.8,8.1,15.7,8.5
				c0.5,0,1.1,0.1,1.7,0.1c6.6,0,15.2-2.5,25.8-7.5c11.5-5.4,20.7-11.6,27.5-18.5s12-14.6,15.7-23.3c3.6-8.6,6-18,7-28.1
				c1.1-10.1,1.6-21,1.6-32.6c0-11.4-0.5-21.8-1.6-30.9c-1.1-9.2-3.4-16.4-7-21.6c-3.6-5.2-8.8-8.2-15.7-8.8
				C238.8,187.2,238,187.2,237.2,187.2L237.2,187.2z M203.4,331.6c-0.8,0-1.6-0.1-2.3-0.3c-2.8-0.7-4.9-3-6.4-6.7
				c-1.5-3.8-2.5-9.1-3-16S191,293.2,191,283s0.2-18.9,0.7-26.2c0.5-7.3,1.5-13.6,3-18.8s3.6-9.5,6.4-12.9c2.8-3.4,6.4-6.1,11-8.2
				c3.4-1.6,6.3-2.4,8.6-2.4c0.8,0,1.6,0.1,2.3,0.3c2.8,0.7,4.9,3,6.4,6.8s2.5,9.1,3,16c0.5,6.8,0.7,15.3,0.7,25.5
				c0,10.2-0.2,19-0.7,26.3c-0.5,7.4-1.5,13.6-3,18.8c-1.5,5.2-3.6,9.4-6.4,12.8c-2.8,3.4-6.4,6.1-11,8.2
				C208.7,330.8,205.8,331.6,203.4,331.6L203.4,331.6z"/>
		</g>
		<g class="st1">
			<polygon class="st3" points="284.4,166 310.1,153.9 310.1,211.8 350.8,192.6 350.8,134.7 376.5,122.6 376.5,268.5 350.8,280.6 
				350.8,213.4 310.1,232.6 310.1,299.8 284.4,311.9 			"/>
			<path d="M374,126.6v140.3l-20.7,9.7v-59.3v-7.9l-7.1,3.4l-35.8,16.9l-2.9,1.4v3.2v64l-20.7,9.7V167.6l20.7-9.7v50v7.9l7.1-3.4
				l35.8-16.9l2.9-1.4V191v-54.7L374,126.6 M379,118.7l-30.7,14.4V191l-35.8,16.9V150l-30.7,14.4v151.4l30.7-14.4v-67.2l35.8-16.9
				v67.2l30.7-14.4V118.7L379,118.7z"/>
		</g>
		<g class="st1">
			<polygon class="st3" points="402.8,110.2 434.4,95.4 471.4,181.6 475.6,179.6 475.6,75.9 498.7,65 498.7,210.9 467.6,225.5 
				430.1,137.2 425.9,139.2 425.9,245.2 402.8,256.1 			"/>
			<path d="M496.2,69v140.3l-27.4,12.9l-35.4-83.6l-2-4.8l-4.7,2.2l-0.4,0.2l-2.9,1.4v3.2v102.8l-18.1,8.5V111.8l27.8-13.1l35,81.5
				l2,4.8l4.7-2.2l0.4-0.2l2.9-1.4V178V77.5L496.2,69 M501.2,61.1l-28.1,13.2V178l-0.4,0.2L435.6,92l-35.3,16.7V260l28.1-13.2v-106
				l0.4-0.2l37.5,88.3l34.9-16.5V61.1L501.2,61.1z"/>
		</g>
		<g class="st1">
			<path class="st3" d="M545.3,186.9c-0.5,0-1,0-1.5,0c-6.1-0.4-10.6-2.9-13.8-7.5c-3.4-4.9-5.6-11.7-6.6-20.4
				c-1-9-1.6-19.3-1.6-30.8c0-11.3,0.5-22.1,1.6-32.2c1-9.9,3.3-19.1,6.8-27.5c3.5-8.3,8.6-16,15.1-22.8c6.6-6.8,15.6-13,26.7-18.2
				c9.8-4.6,17.9-7,24.1-7c0.7,0,1.4,0,2.1,0.1c6.1,0.6,10.6,3.2,13.8,7.8c3.4,4.9,5.6,11.7,6.6,20.5c1,9,1.6,19.4,1.6,30.7
				c0,11.4-0.5,22.3-1.6,32.3c-1,9.8-3.3,19-6.8,27.4c-3.5,8.3-8.6,15.9-15.1,22.5c-6.6,6.6-15.6,12.7-26.8,18
				C559.8,184.4,551.5,186.9,545.3,186.9z M579.7,42.8c-2.8,0-6,0.9-9.7,2.6c-4.9,2.3-8.8,5.3-11.8,8.9s-5.3,8.2-6.9,13.8
				c-1.5,5.4-2.6,11.9-3.1,19.3c-0.5,7.3-0.8,16.2-0.8,26.4s0.3,18.9,0.8,25.8c0.5,7.2,1.5,12.7,3.2,16.7c1.8,4.5,4.5,7.3,8.1,8.2
				c0.9,0.2,1.9,0.4,3,0.4c2.8,0,6-0.9,9.7-2.6c4.9-2.3,8.8-5.3,11.8-8.9c3-3.6,5.3-8.2,6.9-13.7c1.5-5.3,2.6-11.8,3.1-19.3
				c0.5-7.4,0.8-16.3,0.8-26.5s-0.3-18.8-0.8-25.7c-0.5-7.2-1.6-12.6-3.1-16.7c-1.8-4.6-4.5-7.4-8.1-8.4
				C581.8,42.9,580.8,42.8,579.7,42.8z"/>
			<path d="M596.2,23L596.2,23c0.6,0,1.3,0,1.9,0.1c5.3,0.5,9.3,2.7,12,6.7c3.1,4.5,5.2,11,6.2,19.3c1,9,1.6,19.2,1.6,30.4
				c0,11.4-0.5,22.1-1.6,32c-1,9.6-3.3,18.6-6.7,26.7c-3.4,8-8.3,15.3-14.6,21.7c-6.4,6.4-15.1,12.3-26,17.5c-9.9,4.7-17.8,7-23.7,7
				c-0.4,0-0.9,0-1.3,0c-5.3-0.4-9.2-2.4-11.9-6.4c-3.1-4.5-5.2-11-6.2-19.2c-1-8.9-1.6-19.1-1.6-30.5c0-11.2,0.5-22,1.6-31.9
				c1-9.6,3.3-18.7,6.7-26.8c3.4-8,8.3-15.4,14.6-22.1c6.4-6.6,15.1-12.6,26-17.7C582.7,25.3,590.4,23,596.2,23 M562.4,167.4
				c3.2,0,6.7-0.9,10.8-2.9c5.2-2.4,9.5-5.7,12.7-9.6c3.2-3.9,5.7-8.8,7.3-14.6c1.6-5.5,2.6-12.1,3.2-19.8
				c0.5-7.5,0.8-16.4,0.8-26.7c0-10.2-0.3-18.9-0.8-25.9c-0.5-7.4-1.6-13.1-3.3-17.4c-2.1-5.4-5.4-8.7-9.8-9.9
				c-1.1-0.3-2.3-0.5-3.6-0.5c-3.2,0-6.7,0.9-10.8,2.9c-5.2,2.4-9.5,5.7-12.7,9.6s-5.7,8.8-7.3,14.7c-1.6,5.5-2.6,12.2-3.2,19.8
				c-0.5,7.3-0.8,16.3-0.8,26.6s0.3,19,0.8,26c0.5,7.5,1.6,13.2,3.3,17.5c2.6,6.6,6.7,8.9,9.7,9.7
				C559.9,167.3,561.2,167.4,562.4,167.4 M596.2,18c-6.5,0-14.9,2.4-25.1,7.2c-11.5,5.4-20.7,11.7-27.5,18.8s-12,15-15.7,23.6
				c-3.6,8.6-6,18-7,28.2c-1.1,10.2-1.6,21-1.6,32.4c0,11.6,0.5,21.9,1.6,31s3.4,16.3,7,21.5s8.8,8.1,15.7,8.5
				c0.5,0,1.1,0.1,1.7,0.1c6.6,0,15.2-2.5,25.8-7.5c11.5-5.4,20.7-11.6,27.5-18.5s12-14.6,15.7-23.3c3.6-8.6,6-18,7-28.1
				c1.1-10.1,1.6-21,1.6-32.6c0-11.4-0.5-21.8-1.6-30.9c-1.1-9.2-3.4-16.4-7-21.6s-8.8-8.2-15.7-8.8C597.8,18,597,18,596.2,18
				L596.2,18z M562.4,162.4c-0.8,0-1.6-0.1-2.3-0.3c-2.8-0.7-4.9-3-6.4-6.7c-1.5-3.8-2.5-9.1-3-16S550,124,550,113.8
				s0.2-18.9,0.7-26.2s1.5-13.6,3-18.8s3.6-9.5,6.4-12.9c2.8-3.4,6.4-6.1,11-8.2c3.4-1.6,6.3-2.4,8.6-2.4c0.8,0,1.6,0.1,2.3,0.3
				c2.8,0.7,4.9,3,6.4,6.8s2.5,9.1,3,16c0.5,6.8,0.7,15.3,0.7,25.5s-0.2,19-0.7,26.3c-0.5,7.4-1.5,13.6-3,18.8s-3.6,9.4-6.4,12.8
				c-2.8,3.4-6.4,6.1-11,8.2C567.7,161.6,564.8,162.4,562.4,162.4L562.4,162.4z"/>
		</g>
	</g>
	<g>
		<polygon id="H_Shadow" class="st5" points="337.1,105.5 297.5,124 297.5,146.6 273.2,135.3 233.6,153.8 233.6,305.9 269.8,322.8 
			309.4,304.3 309.4,281.6 333.7,293 333.7,293 373.3,274.5 373.3,122.4 		"/>
		<g id="H_Front">
			<polygon class="st3" points="271.8,171.9 307.4,155.3 307.4,211.1 335.7,198 335.7,142.2 371.3,125.5 371.3,273.2 335.7,289.8 
				335.7,227.2 307.4,240.4 307.4,303 271.8,319.6 			"/>
			<path d="M369.3,128.7V272l-31.6,14.7v-56.3v-6.3l-5.7,2.7L307.7,238l-2.3,1.1v2.5v60.1l-31.6,14.7V173.2l31.6-14.7V208v6.3
				l5.7-2.7l24.3-11.3l2.3-1.1v-2.5v-53.3L369.3,128.7 M373.3,122.4l-39.6,18.5v55.8L309.4,208v-55.8l-39.6,18.5v152.1l39.6-18.5
				v-62.6l24.3-11.3V293l39.6-18.5V122.4L373.3,122.4z"/>
		</g>
	</g>
</g>
</svg>
