<?xml version="1.0" encoding="utf-8"?>
<!-- Generator: Adobe Illustrator 24.0.2, SVG Export Plug-In . SVG Version: 6.00 Build 0)  -->
<svg version="1.1" id="Layer_1" xmlns="http://www.w3.org/2000/svg" xmlns:xlink="http://www.w3.org/1999/xlink" x="0px" y="0px"
	 viewBox="0 0 219.3 55" style="enable-background:new 0 0 219.3 55;" xml:space="preserve">
<style type="text/css">
	.st0{opacity:0.25;}
	.st1{fill-opacity:0;}
	.st2{fill:#FFFFFF;}
	.st3{font-family:'HelveticaNeue-Bold';}
	.st4{font-size:50.317px;}
</style>
<title>projects</title>
<g id="Layer_2_1_">
	<g id="Layer_3">
		<g id="Projects_Shadow" class="st0">
			<path class="st1" d="M27.4,14.4c-0.3-1.3-0.9-2.6-1.7-3.7c-0.8-1.1-4.5-4.4-5-5c-0.8-1.1-1.9-2-3.1-2.6c-1.4-0.7-3-1-4.6-1H0V38
				l5,5h6.3V30.2H18c1.6,0,3.2-0.3,4.6-1c1.2-0.6,2.3-1.5,3.1-2.6c0.8-1.1,1.4-2.4,1.7-3.7C28.2,20.2,28.2,17.2,27.4,14.4L27.4,14.4
				z M16.8,13.7c0,0.9-0.1,1.9-0.5,2.8c-0.3,0.6-0.7,1.2-1.2,1.6s-1.1,0.7-1.8,0.8c-0.7,0.1-1.3,0.2-2,0.2v-5.8h4.9
				c0.2,0,0.4,0,0.6,0C16.8,13.5,16.8,13.6,16.8,13.7L16.8,13.7z"/>
		</g>
		<text transform="matrix(0.803 0 0 1 2.2129 43.1216)" class="st2 st3 st4">PROJECTS</text>
	</g>
</g>
</svg>
