<?xml version="1.0" encoding="utf-8"?>
<!-- Generator: Adobe Illustrator 24.0.2, SVG Export Plug-In . SVG Version: 6.00 Build 0)  -->
<svg version="1.1" id="Layer_1" xmlns="http://www.w3.org/2000/svg" xmlns:xlink="http://www.w3.org/1999/xlink" x="0px" y="0px"
	 viewBox="0 0 219.3 55" style="enable-background:new 0 0 219.3 55;" xml:space="preserve">
<style type="text/css">
	.st0{opacity:0.25;}
	.st1{fill:#FFFFFF;}
	.st2{font-family:'HelveticaNeue-Bold';}
	.st3{font-size:50.317px;}
</style>
<title>projects_h</title>
<g id="Layer_2_1_">
	<g id="Layer_3">
		<g id="Projects_Shadow" class="st0">
			<path d="M27.4,14.4c-0.3-1.3-0.9-2.6-1.7-3.7c-0.8-1.1-4.5-4.4-5-5c-0.8-1.1-1.9-2-3.1-2.6c-1.4-0.7-3-1-4.6-1H0V38l5,5h6.3V30.2
				H18c1.6,0,3.2-0.3,4.6-1c1.2-0.6,2.3-1.5,3.1-2.6c0.8-1.1,1.4-2.4,1.7-3.7C28.2,20.2,28.2,17.2,27.4,14.4L27.4,14.4z M16.8,13.7
				c0,0.9-0.1,1.9-0.5,2.8c-0.3,0.6-0.7,1.2-1.2,1.6s-1.1,0.7-1.8,0.8c-0.7,0.1-1.3,0.2-2,0.2v-5.8h4.9c0.2,0,0.4,0,0.6,0
				C16.8,13.5,16.8,13.6,16.8,13.7L16.8,13.7z"/>
			<path d="M56.1,41.3c-0.2-0.8-0.3-1.5-0.3-2.3c-0.1-0.8-0.1-1.6-0.1-2.4c0-0.8-0.1-1.4-0.1-2c-0.1-0.9-0.2-1.8-0.3-2.7
				c-0.1-0.9-0.4-1.7-0.7-2.5c-0.3-0.7-0.7-1.4-1.3-2c-0.5-0.6-1.2-1-1.9-1.2v-0.1c1.5-0.7,2.8-2,3.5-3.5c0.8-1.7,1.1-3.6,1.1-5.5
				c0-1.3-0.2-2.6-0.6-3.8c-0.4-1.1-0.9-2.2-1.7-3.1c-0.7-0.9-4.4-4.3-5-5C47.9,4.2,47,3.5,46,3c-1.1-0.5-2.3-0.8-3.5-0.8H26.9v35.9
				l5,5h6.3v-14h6.1c0,0.1,0.1,0.3,0.1,0.4c0.2,1.4,0.3,3,0.4,4.5c0,1.4,0.3,2.7,0.6,4.1l5,5h6.3C56.5,42.6,56.2,41.9,56.1,41.3z
				 M38.3,13.3h6.3c0.1,1.4-0.3,2.8-1.1,3.9c-0.9,0.9-2.1,1.3-3.3,1.2h-2L38.3,13.3L38.3,13.3z"/>
			<path d="M87.2,17.8c-0.6-2.1-1.5-4.2-2.8-6c-0.4-0.5-0.8-1-1.2-1.5c-0.9-1-5.3-5.4-6.3-6.2c-0.6-0.5-1.3-0.9-1.9-1.3
				c-3.7-1.9-8.2-1.9-11.9,0c-1.8,1-3.3,2.4-4.5,4c-1.3,1.8-2.2,3.9-2.8,6c-0.7,2.4-1,4.9-1,7.5c0,2.5,0.3,4.9,1,7.3
				c0.6,2.1,1.5,4.1,2.8,5.9c0.5,0.7,1,1.3,1.6,1.8c0.8,0.8,4.3,4.3,4.8,4.8c0.9,0.9,2,1.7,3.1,2.3c3.7,1.9,8.2,1.9,11.9,0
				c1.8-1,3.3-2.3,4.4-4c1.3-1.8,2.2-3.8,2.8-5.9c0.7-2.4,1-4.8,1-7.3C88.2,22.8,87.9,20.3,87.2,17.8z M76.4,15.7
				c0.3,1.5,0.4,3,0.4,4.6c0,1.5-0.1,3-0.4,4.4c-0.3,1.3-0.7,2.6-1.4,3.9c-0.6,1.1-1.4,2-2.4,2.7c-1.1,0.7-2.3,1.1-3.6,1
				c-0.6,0-1.1-0.1-1.7-0.2c-0.3-0.8-0.5-1.6-0.7-2.4c-0.3-1.4-0.4-2.9-0.4-4.4s0.1-3.1,0.4-4.6c0.2-1.4,0.7-2.7,1.4-3.9
				c0.6-1.1,1.4-2.1,2.4-2.8c1.1-0.7,2.3-1.1,3.6-1c0.6,0,1.1,0.1,1.7,0.2C76,14,76.3,14.9,76.4,15.7L76.4,15.7z"/>
			<path d="M104.4,2.2h-6.3v24.3c0,0.6,0,1.3-0.1,2c0,0.7-0.2,1.3-0.4,1.9c-0.2,0.6-0.5,1.1-1,1.4c-0.2,0.1-0.4,0.2-0.6,0.3
				c0-0.3,0-0.5,0-0.8v-1.6l-5-5h-5.7v3.1c0,1.7,0.2,3.4,0.8,5.1c0.5,1.3,1.2,2.4,2.1,3.4l5,5c0.9,0.9,1.9,1.5,3,2
				c1.1,0.4,2.3,0.6,3.5,0.6c1.8,0.1,3.6-0.3,5.1-1.2c1.2-0.8,2.2-1.8,2.9-3.1c0.7-1.2,1.1-2.6,1.3-4c0.2-1.3,0.3-2.6,0.3-3.9V7.2
				L104.4,2.2z"/>
			<polygon points="131.9,31.5 121.3,31.5 121.3,27.7 135.3,27.7 135.3,21.5 130.3,16.5 121.3,16.5 121.3,13.8 136.6,13.8 
				136.6,7.2 131.6,2.2 110,2.2 110,38.1 115,43.1 136.9,43.1 136.9,36.5 			"/>
			<path d="M161.8,24.3h-6.1c-0.1,2.1-0.8,4.1-2,5.8c-1,1.5-2.8,2.3-4.5,2.2c-0.6,0-1.1-0.1-1.7-0.2c-0.3-0.8-0.5-1.6-0.7-2.4
				c-0.3-1.4-0.4-2.9-0.4-4.4s0.1-3.1,0.4-4.6c0.2-1.4,0.7-2.7,1.4-3.9c0.6-1.1,1.4-2.1,2.4-2.8c1.1-0.7,2.3-1.1,3.6-1
				c0.4,0,0.7,0,1.1,0.1c0.1,0.4,0.2,0.8,0.2,1.2l5,5h6.1c-0.1-1.9-0.6-3.8-1.4-5.5c-0.7-1.5-1.6-2.9-2.8-4.1c-0.8-0.8-4.1-4.2-5-5
				c-1.1-1.1-2.4-1.9-3.8-2.5c-1.4-0.6-3-0.9-4.5-0.9c-2.1,0-4.1,0.5-6,1.5c-1.8,1-3.3,2.4-4.5,4c-1.3,1.8-2.2,3.9-2.8,6
				c-0.7,2.4-1,4.9-1,7.5c0,2.5,0.3,4.9,1,7.3c0.6,2.1,1.5,4.1,2.8,5.9c0.4,0.6,0.9,1.1,1.4,1.7c0.8,0.8,4.5,4.4,4.9,4.9
				c0.9,0.9,2,1.7,3.1,2.4c1.8,1,3.9,1.5,6,1.4c1.7,0,3.3-0.3,4.9-1c1.5-0.7,2.8-1.7,3.9-2.9c1.2-1.4,2.1-2.9,2.7-4.6
				c0.7-2,1.1-4,1.3-6.1L161.8,24.3z"/>
			<polygon points="187.5,2.2 163.8,2.2 163.8,8.8 168.8,13.8 172.5,13.8 172.5,38.1 177.5,43.1 183.8,43.1 183.8,13.8 192.5,13.8 
				192.5,7.2 			"/>
			<path d="M217.2,27.5c-0.6-1.2-1.4-2.2-2.4-3.1c-0.8-0.6-4.1-4.2-5-5c-0.8-0.7-1.8-1.3-2.8-1.7c-1-0.4-1.7-0.6-2.2-0.7
				c-1.4-0.4-2.6-0.8-3.5-1.1c0-0.4,0.2-0.8,0.3-1.2c0.3-0.5,0.6-0.9,1-1.3c0.4-0.3,0.9-0.6,1.4-0.7c0.5-0.1,1-0.2,1.5-0.2
				c0.2,0,0.4,0,0.7,0c0,0.1,0,0.3,0,0.4l5,5h6.1c0-1.8-0.3-3.6-0.9-5.3c-0.6-1.4-1.4-2.6-2.6-3.6c-0.8-0.7-4-4.1-5-5
				c-1.1-0.9-2.3-1.6-3.7-2s-2.9-0.6-4.3-0.6c-1.3,0-2.6,0.2-3.9,0.7c-1.3,0.4-2.5,1.1-3.5,2c-1.1,0.9-1.9,2.1-2.5,3.4
				c-0.7,1.5-1,3.2-0.9,4.8c0,1.4,0.2,2.9,0.7,4.2c0.5,1.1,1.1,2.1,2,2.9c0.8,0.8,4.2,4.2,5,5s1.7,1.4,2.7,1.9s2.1,0.9,3.1,1.2
				c1.1,0.4,2.1,0.7,3.1,1c0.2,0,0.3,0.1,0.4,0.1c0,0.7-0.2,1.4-0.6,2c-0.4,0.6-0.8,1-1.4,1.4c-0.6,0.3-1.2,0.6-1.8,0.7
				s-1.2,0.2-1.8,0.2c-0.4,0-0.8,0-1.3-0.1c-0.1-0.5-0.1-1-0.1-1.5l-5-5h-6c-0.1,2,0.3,3.9,1,5.7c0.6,1.5,1.5,2.9,2.7,4
				c0.8,0.7,4,4.1,5,5c1.1,1,2.5,1.8,4,2.3s3.1,0.7,4.6,0.7c1.8,0,3.5-0.3,5.2-0.9c1.4-0.5,2.7-1.3,3.8-2.4c1-1,1.8-2.3,2.3-3.6
				c0.5-1.5,0.8-3,0.8-4.6C218.3,30.8,218,29,217.2,27.5z"/>
		</g>
		<text transform="matrix(0.803 0 0 1 2.2129 43.1216)" class="st1 st2 st3">PROJECTS</text>
	</g>
</g>
</svg>
